<svg width="92" height="16" viewBox="0 0 92 16" fill="none" xmlns="http://www.w3.org/2000/svg">
<path d="M15.9583 6.04621C15.8535 5.70813 15.5662 5.46802 15.2262 5.43605L10.6082 4.99849L8.78207 0.538446C8.64742 0.211582 8.34077 0 8.00006 0C7.65936 0 7.35271 0.211582 7.21806 0.53921L5.39197 4.99849L0.77321 5.43605C0.433846 5.46878 0.147218 5.70813 0.0418691 6.04621C-0.0634801 6.38428 0.0338122 6.75509 0.290532 6.98884L3.78122 10.1833L2.75189 14.9147C2.67657 15.2626 2.80597 15.6222 3.08259 15.8308C3.23128 15.9429 3.40523 16 3.58065 16C3.7319 16 3.88193 15.9575 4.01657 15.8734L8.00006 13.389L11.9821 15.8734C12.2735 16.0563 12.6408 16.0396 12.9168 15.8308C13.1935 15.6215 13.3228 15.2618 13.2475 14.9147L12.2182 10.1833L15.7089 6.98947C15.9656 6.75509 16.0636 6.38492 15.9583 6.04621V6.04621Z" fill="#FFF27B"/>
<path d="M34.9583 6.04621C34.8535 5.70813 34.5662 5.46802 34.2262 5.43605L29.6082 4.99849L27.7821 0.538446C27.6474 0.211582 27.3408 0 27.0001 0C26.6594 0 26.3527 0.211582 26.2181 0.53921L24.392 4.99849L19.7732 5.43605C19.4338 5.46878 19.1472 5.70813 19.0419 6.04621C18.9365 6.38428 19.0338 6.75509 19.2905 6.98884L22.7812 10.1833L21.7519 14.9147C21.6766 15.2626 21.806 15.6222 22.0826 15.8308C22.2313 15.9429 22.4052 16 22.5806 16C22.7319 16 22.8819 15.9575 23.0166 15.8734L27.0001 13.389L30.9821 15.8734C31.2735 16.0563 31.6408 16.0396 31.9168 15.8308C32.1935 15.6215 32.3228 15.2618 32.2475 14.9147L31.2182 10.1833L34.7089 6.98947C34.9656 6.75509 35.0636 6.38492 34.9583 6.04621V6.04621Z" fill="#FFF27B"/>
<path d="M53.9583 6.04621C53.8535 5.70813 53.5662 5.46802 53.2262 5.43605L48.6082 4.99849L46.7821 0.538446C46.6474 0.211582 46.3408 0 46.0001 0C45.6594 0 45.3527 0.211582 45.2181 0.53921L43.392 4.99849L38.7732 5.43605C38.4338 5.46878 38.1472 5.70813 38.0419 6.04621C37.9365 6.38428 38.0338 6.75509 38.2905 6.98884L41.7812 10.1833L40.7519 14.9147C40.6766 15.2626 40.806 15.6222 41.0826 15.8308C41.2313 15.9429 41.4052 16 41.5806 16C41.7319 16 41.8819 15.9575 42.0166 15.8734L46.0001 13.389L49.9821 15.8734C50.2735 16.0563 50.6408 16.0396 50.9168 15.8308C51.1935 15.6215 51.3228 15.2618 51.2475 14.9147L50.2182 10.1833L53.7089 6.98947C53.9656 6.75509 54.0636 6.38492 53.9583 6.04621V6.04621Z" fill="#FFF27B"/>
<path d="M91.1554 6.1827L91.156 6.18275C91.1788 6.1849 91.2221 6.20426 91.2419 6.26816L91.9583 6.04621L91.2421 6.26896C91.2632 6.33677 91.2398 6.40218 91.2032 6.4356L91.2026 6.43614L87.7119 9.63L87.3936 9.92122L87.4853 10.3428L88.5146 15.0737C88.5302 15.1456 88.4999 15.2058 88.4644 15.2326L88.4643 15.2327C88.4476 15.2454 88.4327 15.2492 88.4211 15.2498C88.4096 15.2503 88.3962 15.2478 88.3809 15.2382L88.3791 15.2371L84.3971 12.7527L84.0001 12.5051L83.6032 12.7527L79.6197 15.237L79.6194 15.2372C79.6102 15.2429 79.6026 15.246 79.5968 15.2476C79.591 15.2493 79.5857 15.25 79.5806 15.25C79.5745 15.25 79.568 15.249 79.5609 15.2467C79.5539 15.2443 79.5448 15.24 79.5342 15.2321C79.5 15.2063 79.4691 15.1468 79.4849 15.0736C79.4849 15.0736 79.4849 15.0735 79.4849 15.0734L80.5141 10.3428L80.6058 9.92127L80.2876 9.63005L76.7969 6.43555L76.7955 6.43428C76.7608 6.40269 76.7366 6.33774 76.7579 6.26934C76.7781 6.20464 76.8213 6.18501 76.8449 6.18261C76.845 6.1826 76.8451 6.18259 76.8452 6.18258L81.4627 5.74514L81.9142 5.70237L82.086 5.28271L83.9118 0.824304C83.9118 0.824191 83.9119 0.824078 83.9119 0.823965C83.9371 0.762929 83.9794 0.75 84.0001 0.75C84.021 0.75 84.0633 0.763249 84.0884 0.823575C84.0885 0.823752 84.0885 0.823931 84.0886 0.824109L85.9141 5.28267L86.0859 5.70236L86.5374 5.74514L91.1554 6.1827Z" stroke="#FFF27B" stroke-width="1.5"/>
<path d="M72.1554 6.1827L72.156 6.18275C72.1788 6.1849 72.2221 6.20426 72.2419 6.26816L72.9583 6.04621L72.2421 6.26896C72.2632 6.33677 72.2398 6.40218 72.2032 6.4356L72.2026 6.43614L68.7119 9.63L68.3936 9.92122L68.4853 10.3428L69.5146 15.0737C69.5302 15.1456 69.4999 15.2058 69.4644 15.2326L69.4643 15.2327C69.4476 15.2454 69.4327 15.2492 69.4211 15.2498C69.4096 15.2503 69.3962 15.2478 69.3809 15.2382L69.3791 15.2371L65.3971 12.7527L65.0001 12.5051L64.6032 12.7527L60.6197 15.237L60.6194 15.2372C60.6102 15.2429 60.6026 15.246 60.5968 15.2476C60.591 15.2493 60.5857 15.25 60.5806 15.25C60.5745 15.25 60.568 15.249 60.5609 15.2467C60.5539 15.2443 60.5448 15.24 60.5342 15.2321C60.5 15.2063 60.4691 15.1468 60.4849 15.0736C60.4849 15.0736 60.4849 15.0735 60.4849 15.0734L61.5141 10.3428L61.6058 9.92127L61.2876 9.63005L57.7969 6.43555L57.7955 6.43428C57.7608 6.40269 57.7366 6.33774 57.7579 6.26934C57.7781 6.20464 57.8213 6.18501 57.8449 6.18261C57.845 6.1826 57.8451 6.18259 57.8452 6.18258L62.4627 5.74514L62.9142 5.70237L63.086 5.28271L64.9118 0.824304C64.9118 0.824191 64.9119 0.824078 64.9119 0.823965C64.9371 0.762929 64.9794 0.75 65.0001 0.75C65.021 0.75 65.0633 0.763249 65.0884 0.823575C65.0885 0.823752 65.0885 0.823931 65.0886 0.824109L66.9141 5.28267L67.0859 5.70236L67.5374 5.74514L72.1554 6.1827Z" stroke="#FFF27B" stroke-width="1.5"/>
</svg>
