<svg xmlns="http://www.w3.org/2000/svg" xmlns:xlink="http://www.w3.org/1999/xlink" viewBox="0 0 534.87 188.57"><defs><style>.cls-1{fill:url(#Безымянный_градиент_6);}.cls-2{fill:url(#Безымянный_градиент_10);}</style><linearGradient id="Безымянный_градиент_6" x1="192.28" y1="2882.54" x2="99.65" y2="2839.13" gradientTransform="translate(0 -2811)" gradientUnits="userSpaceOnUse"><stop offset="0.2"/><stop offset="1" stop-color="#fff" stop-opacity="0.07"/></linearGradient><linearGradient id="Безымянный_градиент_10" x1="-11251.05" y1="5946.34" x2="-11332.97" y2="5885.06" gradientTransform="translate(-11250.04 6057.79) rotate(180)" gradientUnits="userSpaceOnUse"><stop offset="0.11"/><stop offset="1" stop-color="#fff" stop-opacity="0"/></linearGradient></defs><g id="Слой_2" data-name="Слой 2"><g id="Слой_1-2" data-name="Слой 1"><rect x="239" y="42.57" width="20.48" height="106.43"/><path d="M481.8,39.55c-29.31,0-53.07,25.11-53.07,56.1s23.76,56.1,53.07,56.1,53.07-25.12,53.07-56.1S511.11,39.55,481.8,39.55Zm0,90c-17,0-30.84-15.16-30.84-33.86s13.81-33.87,30.84-33.87,30.84,15.16,30.84,33.87S498.83,129.51,481.8,129.51Z"/><rect x="372.34" y="75.13" width="20.48" height="35.14" transform="translate(475.28 -289.87) rotate(90)"/><path d="M377.73,39.55C357.42,39.55,341,53.74,341,71.24h22c0-6.12,6.62-11.09,14.8-11.09s14.81,5,14.81,11.09-6.63,11.1-14.81,11.1v20.6c20.32,0,36.78-14.19,36.78-31.7S398.05,39.55,377.73,39.55Z"/><rect x="239" y="42.57" width="50.52" height="20.48"/><rect x="239" y="82.46" width="53.62" height="20.48"/><rect x="239.02" y="128.52" width="53.6" height="20.48"/><path d="M289.52,42.57a30.2,30.2,0,0,0-28.59,20.48h28.59a9.71,9.71,0,1,1,0,19.41H260.93a30.19,30.19,0,1,0,28.59-39.89Z"/><path d="M292.62,82.46v20.48a12.79,12.79,0,0,1,0,25.58V149a33.27,33.27,0,0,0,0-66.54Z"/><path d="M378.18,82.46h-.45V103h.45c10.9,0,19.73,6.34,19.73,14.16s-8.83,14.17-19.73,14.17-19.73-6.34-19.73-14.17H335.78c0,19.14,19,34.65,42.4,34.65s42.4-15.51,42.4-34.65S401.6,82.46,378.18,82.46Z"/></g><g id="Слой_2-2" data-name="Слой 2"><path d="M92.93,43.84A49.14,49.14,0,1,0,142.11,93,49.16,49.16,0,0,0,92.93,43.84Zm0,76.2A27.12,27.12,0,1,1,120,92.93h0A27.06,27.06,0,0,1,92.93,120Z"/><path class="cls-1" d="M185.85,92.93h-22A70.93,70.93,0,0,0,92.93,22V0A93,93,0,0,1,185.85,92.93Z"/><path class="cls-2" d="M0,95.65H22a70.93,70.93,0,0,0,71,70.95v22A93,93,0,0,1,0,95.65Z"/></g></g></svg>