<svg width="35" height="35" viewBox="0 0 35 35" fill="none" xmlns="http://www.w3.org/2000/svg">
<path d="M27.4504 33.8481H1.85938C1.43555 33.8481 1.09375 33.5063 1.09375 33.0824V1.91602C1.09375 1.49219 1.43555 1.15039 1.85938 1.15039H27.4504C27.8742 1.15039 28.216 1.49219 28.216 1.91602V33.0824C28.216 33.5063 27.8742 33.8481 27.4504 33.8481Z" fill="white"/>
<path d="M27.1223 2.24414V32.7543H2.1875V2.24414H27.1223ZM27.4504 1.15039H1.85938C1.43555 1.15039 1.09375 1.49219 1.09375 1.91602V33.0824C1.09375 33.5063 1.43555 33.8481 1.85938 33.8481H27.4504C27.8742 33.8481 28.216 33.5063 28.216 33.0824V1.91602C28.216 1.49219 27.8742 1.15039 27.4504 1.15039Z" fill="#6FBFF0"/>
<path d="M4.74219 6.77915C5.30273 6.53032 5.94531 6.79282 6.55781 6.80376C7.24414 6.81743 7.91133 6.50844 8.59766 6.54672C9.27305 6.58227 9.89375 6.94868 10.5664 7.0061C11.4113 7.07446 12.2152 6.65063 13.0547 6.54399C14.2496 6.39087 15.4746 6.88032 16.6559 6.63149" stroke="#B0BEC5" stroke-width="0.960938" stroke-miterlimit="10" stroke-linecap="round"/>
<path d="M4.7168 11.828C5.19258 11.6995 5.70117 11.6995 6.17695 11.8226C6.62539 11.9401 7.04922 12.1643 7.51133 12.1753C8.10195 12.189 8.64063 11.8499 9.21758 11.7296C10.5957 11.4397 12.0586 12.3968 13.3902 11.9429" stroke="#B0BEC5" stroke-width="0.960938" stroke-miterlimit="10" stroke-linecap="round"/>
<path d="M17.5332 11.8891C18.3344 11.6238 19.1984 11.941 20.0406 11.9684C20.4398 11.982 20.8363 11.9273 21.2301 11.8754C21.7305 11.8098 22.2336 11.7414 22.734 11.6758" stroke="#B0BEC5" stroke-width="0.960938" stroke-miterlimit="10" stroke-linecap="round"/>
<path d="M4.75977 15.9903C5.375 15.8837 6.00937 15.7743 6.61914 15.9083C6.96641 15.9848 7.3 16.138 7.65547 16.1434C8.05742 16.1489 8.43477 15.9684 8.82578 15.8755C9.35491 15.7502 9.9095 15.7874 10.4172 15.9821" stroke="#B0BEC5" stroke-width="0.960938" stroke-miterlimit="10" stroke-linecap="round"/>
<path d="M14.2871 16.1428C14.2871 16.1428 14.7957 15.7108 16.1383 15.9951C16.8355 16.1428 17.5656 16.2795 18.2629 16.1237C18.5363 16.0635 18.7961 15.9487 19.0695 15.8912C19.3703 15.8311 19.6793 15.8393 19.9855 15.8475C20.4832 15.8639 20.9836 15.8776 21.4812 15.894" stroke="#B0BEC5" stroke-width="0.960938" stroke-miterlimit="10" stroke-linecap="round"/>
<path d="M4.60938 20.3766C5.44609 19.8242 6.57539 20.4559 7.55977 20.2617C8.01094 20.1715 8.41562 19.909 8.8668 19.827C9.42187 19.7258 9.98242 19.9063 10.543 19.9746C10.8902 20.0184 11.2402 20.0156 11.5902 20.0156C11.9539 20.0156 12.3203 20.0156 12.684 20.0129C13.9172 20.0102 15.1586 20.0074 16.3645 19.7559" stroke="#B0BEC5" stroke-width="0.960938" stroke-miterlimit="10" stroke-linecap="round"/>
<path d="M4.42969 24.3328C5.05586 24.0922 5.72031 23.8571 6.38203 23.961C7.01641 24.0621 7.60703 24.4696 8.24414 24.3875C8.50117 24.3547 8.7418 24.2399 8.98516 24.1496C9.5293 23.9446 10.109 23.8434 10.6887 23.8543" stroke="#B0BEC5" stroke-width="0.960938" stroke-miterlimit="10" stroke-linecap="round"/>
<path d="M18.1777 24.4277C18.5277 24.0312 19.1293 23.993 19.6516 24.0723C20.1738 24.1516 20.6988 24.3184 21.2184 24.2227C21.541 24.1652 21.8363 24.0066 22.159 23.952C22.8426 23.8344 23.5891 24.1734 24.2207 23.8809" stroke="#B0BEC5" stroke-width="0.960938" stroke-miterlimit="10" stroke-linecap="round"/>
<path d="M4.44531 29.723C4.84727 29.3156 5.51445 29.3484 6.0668 29.5043C6.61914 29.6601 7.16602 29.9144 7.73477 29.8543C8.22969 29.8023 8.67539 29.5152 9.17031 29.4551C9.70625 29.3867 10.234 29.5891 10.759 29.7176C11.4836 29.898 12.2383 29.9418 12.9793 29.8516" stroke="#B0BEC5" stroke-width="0.960938" stroke-miterlimit="10" stroke-linecap="round"/>
<path opacity="0.3" d="M28.2514 13.8379L15.7034 24.4418L15.6924 24.45C15.3998 24.6988 12.9334 29.4895 12.9334 29.4895C12.7256 29.9926 13.1905 30.5176 13.7291 30.3918C13.7291 30.3918 20.2178 28.4203 20.3983 28.2781L28.2159 21.8031L28.2514 13.8379Z" fill="#6FBFF0"/>
<path d="M12.474 29.4594L13.1549 25.8582L13.6225 23.3781C13.7154 22.7437 13.71 22.4867 13.9862 22.0957L15.9904 19.252L22.1182 23.5695L20.1111 26.416C19.9471 26.6512 19.5944 26.8863 19.0283 27.1871L16.8518 28.4613L13.6881 30.3152C13.0865 30.6324 12.3756 30.132 12.474 29.4594Z" fill="#FFECB3"/>
<path d="M13.6884 30.3164L16.3079 28.7797C16.3079 28.7797 15.1404 28.9164 14.2216 28.2684C13.3029 27.6203 13.0376 26.4746 13.0376 26.4746L12.4716 29.4578C12.3759 30.1332 13.0868 30.6336 13.6884 30.3164Z" fill="#616161"/>
<path d="M28.217 11.0609L25.7205 9.30273L15.5076 23.7977C15.5076 23.7977 15.4366 24.8914 16.1912 25.4219C16.9459 25.9523 18.0041 25.5559 18.0041 25.5559L28.217 11.0609Z" fill="#FFC107"/>
<path d="M30.032 12.3402L20.0953 26.4387C18.2277 27.1988 18.0254 25.5227 18.0254 25.5227L28.2164 11.0605L30.032 12.3402Z" fill="#FFA000"/>
<path d="M25.7201 9.29922L15.5291 23.7613C15.5291 23.7613 13.3088 24.1469 13.9979 22.0797L23.9045 8.01953L25.7201 9.29922Z" fill="#FDD835"/>
<path opacity="0.2" d="M23.9043 8.02344C23.9043 8.02344 25.3152 9.48906 26.4062 10.2656C28.4953 11.7504 30.032 12.341 30.032 12.341L29.7367 12.7621C29.1898 12.6527 27.7816 12.2809 26.2504 11.2035C24.7109 10.118 23.8687 8.94492 23.5762 8.48828L23.9043 8.02344Z" fill="#4E342E"/>
<path d="M15.548 24.207L15.507 23.7969L15.1543 23.7914L25.493 9.14062L25.9496 9.46328L15.548 24.207Z" fill="#F19534"/>
<path d="M18.0023 25.5555L17.584 25.6621L27.7285 11.2656L28.1879 11.5883L18.1227 25.8727L18.0023 25.5555Z" fill="#D1762C"/>
<path d="M25.4316 5.85437L27.2254 9.6196L31.5566 10.1719L33.6211 7.30359C34.1516 6.55163 34.0887 5.37039 32.098 3.96765L30.8977 3.12273C29.1777 1.90867 28.0238 2.23679 27.4934 2.98601L25.4316 5.85437Z" fill="#EF5350"/>
<path d="M30.6849 12.1684C30.5892 12.3024 30.4361 12.3844 30.272 12.3844C30.272 12.3844 28.5029 12.163 26.545 10.7821C24.5845 9.40124 23.7532 7.86999 23.7532 7.86999C23.6986 7.71413 23.7232 7.54186 23.8189 7.40788L25.2736 5.34343C25.3337 5.25593 25.4294 5.20124 25.5361 5.19304C25.5716 5.1903 25.6071 5.1903 25.6454 5.18757C25.7876 5.18483 25.9161 5.26686 25.979 5.39538C25.979 5.39538 27.0536 6.81452 28.6068 7.90827C30.1599 9.00202 31.9126 9.49147 31.9126 9.49147C32.0548 9.50514 32.1778 9.59538 32.2216 9.7321V9.73483C32.2571 9.84147 32.2407 9.95905 32.1751 10.052L30.6849 12.1684Z" fill="#94D1E0"/>
<path d="M33.7066 6.08623C34.0015 5.66775 33.0957 4.52178 31.6835 3.52664C30.2713 2.5315 28.8874 2.06403 28.5925 2.48251C28.2976 2.90099 29.2034 4.04695 30.6156 5.04209C32.0279 6.03723 33.4117 6.50471 33.7066 6.08623Z" fill="#FF8383"/>
<path d="M25.7353 6.88811C26.6322 8.06389 27.9282 8.93069 29.3556 9.31624C29.4486 9.34084 29.6318 9.34631 29.67 9.25608C29.6974 9.18772 29.67 9.02913 29.4732 8.94436C28.7622 8.63811 27.9419 8.11311 26.8564 7.1342C25.7708 6.1553 25.4646 5.50178 25.295 5.67678C25.1529 5.82444 25.563 6.66389 25.7353 6.88811Z" fill="#B9E4EA"/>
<path d="M27.0806 8.89679C27.365 9.06085 27.0123 9.52023 26.0279 9.01437C25.3252 8.65343 24.7072 8.03546 24.524 7.2671C24.5021 7.17687 24.4885 6.95538 24.5787 6.87609C24.8658 6.62453 24.956 7.0921 25.5439 7.7046C25.9978 8.18039 26.5064 8.56867 27.0806 8.89679Z" fill="#B9E4EA"/>
</svg>
