<svg width="37" height="45" viewBox="0 0 37 45" fill="none" xmlns="http://www.w3.org/2000/svg">
<path d="M35.5 18.25C35.5 31.6667 18.25 43.1667 18.25 43.1667C18.25 43.1667 1 31.6667 1 18.25C1 13.675 2.81741 9.28741 6.05241 6.05241C9.28741 2.81741 13.675 1 18.25 1C22.825 1 27.2126 2.81741 30.4476 6.05241C33.6826 9.28741 35.5 13.675 35.5 18.25Z" stroke="white" stroke-width="2" stroke-linecap="round" stroke-linejoin="round"/>
<path d="M18.25 24C21.4256 24 24 21.4256 24 18.25C24 15.0744 21.4256 12.5 18.25 12.5C15.0744 12.5 12.5 15.0744 12.5 18.25C12.5 21.4256 15.0744 24 18.25 24Z" stroke="white" stroke-width="2" stroke-linecap="round" stroke-linejoin="round"/>
</svg>
