<svg width="27" height="26" viewBox="0 0 27 26" fill="none" xmlns="http://www.w3.org/2000/svg">
<path d="M10.7021 14.1949C11.2204 14.8878 11.8817 15.4611 12.641 15.876C13.4003 16.2908 14.24 16.5375 15.103 16.5993C15.9661 16.6611 16.8323 16.5366 17.643 16.2342C18.4537 15.9318 19.1899 15.4586 19.8016 14.8466L23.4221 11.2261C24.5213 10.0881 25.1295 8.56384 25.1158 6.98171C25.102 5.39958 24.4674 3.88614 23.3486 2.76736C22.2298 1.64858 20.7164 1.01398 19.1343 1.00023C17.5521 0.98648 16.0279 1.59469 14.8898 2.69386L12.8141 4.75753" stroke="black" stroke-width="2" stroke-linecap="round" stroke-linejoin="round"/>
<path d="M15.53 11.7811C15.0118 11.0883 14.3505 10.515 13.5912 10.1001C12.8319 9.68525 11.9922 9.43855 11.1292 9.37674C10.2661 9.31493 9.39985 9.43946 8.58915 9.74187C7.77845 10.0443 7.04228 10.5175 6.43055 11.1295L2.81007 14.7499C1.7109 15.888 1.10269 17.4122 1.11644 18.9944C1.13019 20.5765 1.76479 22.0899 2.88357 23.2087C4.00235 24.3275 5.51579 24.9621 7.09792 24.9759C8.68005 24.9896 10.2043 24.3814 11.3423 23.2822L13.406 21.2185" stroke="black" stroke-width="2" stroke-linecap="round" stroke-linejoin="round"/>
</svg>
