<svg width="26" height="24" viewBox="0 0 26 24" fill="none" xmlns="http://www.w3.org/2000/svg">
<path d="M3.4 1H22.6C23.2365 1 23.847 1.25286 24.2971 1.70294C24.7471 2.15303 25 2.76348 25 3.4V10.6C25 13.7826 23.7357 16.8348 21.4853 19.0853C19.2348 21.3357 16.1826 22.6 13 22.6C11.4241 22.6 9.86371 22.2896 8.4078 21.6866C6.95189 21.0835 5.62902 20.1996 4.51472 19.0853C2.26428 16.8348 1 13.7826 1 10.6V3.4C1 2.76348 1.25286 2.15303 1.70294 1.70294C2.15303 1.25286 2.76348 1 3.4 1V1Z" stroke="black" stroke-width="2" stroke-linecap="round" stroke-linejoin="round"/>
<path d="M8.19995 9.40039L13 14.2004L17.8 9.40039" stroke="black" stroke-width="2" stroke-linecap="round" stroke-linejoin="round"/>
</svg>
