<svg width="101" height="24" viewBox="0 0 101 24" fill="none" xmlns="http://www.w3.org/2000/svg">
<g clip-path="url(#clip0_8637_1006)">
<path d="M96.0718 6.18521C95.3323 6.12429 94.5906 6.27461 93.9325 6.61882C93.2743 6.96303 92.7263 7.48713 92.3518 8.13068V6.50519H88.4407V23.0416H92.4919V17.0773C92.9036 17.633 93.4496 18.0739 94.0783 18.3583C94.707 18.6428 95.3975 18.7613 96.0845 18.7027C99.1038 18.7027 101.002 16.0661 101.002 12.4312C101.002 8.79623 99.1548 6.18521 96.0718 6.18521ZM94.6195 15.4774C92.9506 15.4774 92.2499 14.0311 92.2499 12.4312C92.2499 10.8313 93.0015 9.46178 94.6195 9.46178C96.2374 9.46178 96.989 10.7417 96.989 12.4312C96.989 14.1207 96.2884 15.4774 94.6195 15.4774Z" fill="#95A5B0"/>
<path d="M86.8625 11.1012V18.4223H82.8112V11.8819C82.8112 10.5124 82.5437 9.69327 81.3717 9.69327C80.1996 9.69327 79.69 10.6788 79.69 11.9587V18.4223H75.677V11.8819C75.677 10.5124 75.3458 9.69327 74.161 9.69327C72.9762 9.69327 72.4284 10.8196 72.4284 12.1507V18.4223H68.39V6.50629H72.301V8.31096C72.6052 7.63799 73.1077 7.07507 73.7406 6.69827C74.371 6.32403 75.0993 6.15003 75.8299 6.19911C76.5182 6.15664 77.2022 6.33445 77.7836 6.70699C78.365 7.07954 78.8139 7.62764 79.0658 8.27256C79.395 7.62919 79.8985 7.09235 80.5181 6.72387C81.1453 6.36503 81.8609 6.19196 82.5819 6.22471C85.5121 6.22471 86.8625 8.10618 86.8625 11.1012Z" fill="#95A5B0"/>
<path d="M61.2421 6.27586C57.8151 6.27586 55.9806 7.95255 55.8405 10.1796H59.535C59.5426 9.97811 59.5913 9.78034 59.6782 9.59856C59.765 9.41678 59.8881 9.25486 60.0398 9.12286C60.1915 8.99085 60.3686 8.89156 60.5601 8.83115C60.7515 8.77074 60.9533 8.75051 61.1529 8.77169C62.223 8.77169 62.7709 9.29645 62.7709 10.666V10.8323H60.2229C56.7068 10.8323 55.3182 12.9954 55.3182 14.8129C55.3023 15.3473 55.3978 15.8791 55.5984 16.3744C55.7927 16.8583 56.0882 17.2948 56.4647 17.6543C56.8295 18.021 57.2623 18.3123 57.7387 18.5118C58.2335 18.7046 58.7628 18.7918 59.2929 18.7678C59.9945 18.8436 60.7036 18.7334 61.3495 18.4482C61.9955 18.163 62.5558 17.7128 62.9747 17.1423V18.4222H66.6437V11.0371C66.7074 7.81176 64.4015 6.27586 61.2421 6.27586ZM62.7836 13.8657C62.8015 14.1302 62.7669 14.3956 62.6817 14.6465C62.5847 14.8969 62.4421 15.1269 62.2613 15.3248C62.0721 15.5104 61.8465 15.6543 61.5988 15.7472C61.3525 15.8475 61.087 15.8912 60.8217 15.8752C59.7898 15.8752 59.1783 15.44 59.1783 14.5953C59.1783 13.7505 59.9554 13.2258 60.9873 13.2258H62.7836V13.8657Z" fill="#95A5B0"/>
<path d="M53.9154 2.34595H49.6094V18.4216H53.9154V2.34595Z" fill="#95A5B0"/>
<path d="M40.2322 6.40264V9.39763H46.36V13.2374H40.2322V18.6002H36.0663V6.24905H34.563C34.3861 6.21771 34.205 6.21771 34.028 6.24905C33.8613 6.31799 33.7065 6.41303 33.5694 6.53063C33.4384 6.65565 33.3306 6.80298 33.2509 6.9658C33.18 7.13634 33.1411 7.3186 33.1362 7.50336C33.1512 7.80139 33.2482 8.08938 33.4165 8.33531C33.5932 8.57608 33.837 8.75872 34.1172 8.86007L33.047 12.5078C31.9248 12.2592 30.9191 11.6367 30.1933 10.7415C29.4786 9.82669 29.1005 8.69176 29.1232 7.52896C29.1232 4.27799 31.7476 2.40932 34.6395 2.40932H48.1817V6.40264H40.2322Z" fill="#95A5B0"/>
<path d="M20.1992 10.9314C20.1973 13.4116 19.2143 15.7894 17.4664 17.5422C16.1594 18.858 14.4924 19.7542 12.6771 20.1171C10.8617 20.4801 8.97992 20.2933 7.27052 19.5805C6.1292 19.1165 5.09459 18.4228 4.23041 17.5422C3.23835 16.701 2.43078 15.6625 1.85866 14.4922C1.28654 13.322 0.962304 12.0453 0.906412 10.7429C0.85052 9.44047 1.06419 8.14056 1.53393 6.92522C2.00367 5.70987 2.71929 4.60549 3.6356 3.68178C4.55192 2.75806 5.64903 2.03508 6.85769 1.55847C8.06635 1.08186 9.3603 0.861975 10.6579 0.912687C11.9555 0.9634 13.2285 1.28361 14.3966 1.85311C15.5646 2.42261 16.6025 3.22903 17.4445 4.22146H10.8594C9.9865 4.22623 9.12378 4.40994 8.32413 4.76134C7.50957 5.08857 6.76904 5.57724 6.14677 6.19815C5.5245 6.81907 5.03325 7.5595 4.70234 8.37524C4.36535 9.18865 4.1937 10.0615 4.19748 10.9424V17.5532H10.7826C11.6595 17.5513 12.5279 17.3792 13.3398 17.0464C14.1604 16.7129 14.9067 16.2184 15.5348 15.592C16.1537 14.9573 16.6455 14.2092 16.9835 13.3884C17.3168 12.5704 17.4846 11.694 17.4774 10.8102V4.19942C18.3544 5.08332 19.0468 6.13403 19.5142 7.29C19.9816 8.44597 20.2145 9.68395 20.1992 10.9314Z" fill="#95A5B0"/>
<path d="M14.7799 10.7696C14.7954 11.3205 14.7018 11.869 14.5045 12.3834C14.2959 12.8769 13.997 13.3268 13.6232 13.7098C13.0527 14.2758 12.3284 14.6603 11.5411 14.8151C10.5592 15.0016 9.54324 14.8177 8.68825 14.2986C7.83325 13.7795 7.19947 12.9618 6.90855 12.0026C6.61764 11.0433 6.6901 10.0101 7.11202 9.10112C7.53394 8.19218 8.27559 7.47163 9.1946 7.07778C9.93705 6.7708 10.7532 6.69006 11.5411 6.84566C12.3295 6.9973 13.0547 7.38226 13.6232 7.95099C14.0013 8.32713 14.3011 8.77486 14.5054 9.2682C14.7096 9.76153 14.8142 10.2907 14.813 10.8249L14.7799 10.7696Z" fill="#95A5B0"/>
</g>
<defs>
<clipPath id="clip0_8637_1006">
<rect width="101" height="23" fill="white" transform="translate(0 0.00390625)"/>
</clipPath>
</defs>
</svg>
