<svg width="36" height="36" viewBox="0 0 36 36" fill="none" xmlns="http://www.w3.org/2000/svg">
<path d="M19.7552 28.3464L33.4099 29.6458C34.6952 29.7695 35.0243 29.0523 35.0243 28.4448L35.0102 27.708L18.2168 25.3398C18.2168 26.1808 18.9002 28.3464 19.7552 28.3464Z" fill="#C62828"/>
<path d="M20.2528 27.705L22.4016 27.8934L33.9075 29.0044C34.5263 29.0044 35.0241 28.5122 35.0241 27.9047L34.4138 9.26906C34.4138 8.66156 33.9131 8.16937 33.2972 8.16937L20.2528 6.9375C19.3978 6.9375 18.7031 7.62094 18.7031 8.46187V26.1806C18.7031 27.0216 19.395 27.705 20.2528 27.705Z" fill="#A72E26"/>
<path d="M16.2456 28.3473L2.59094 29.6466C1.30562 29.7704 0.976562 29.0532 0.976562 28.4457L0.990625 27.7088L17.7841 25.3379C17.7841 26.1816 17.1006 28.3473 16.2456 28.3473Z" fill="#C62828"/>
<path d="M15.7478 27.7061L13.6159 27.8945L2.09313 29.0083C1.47438 29.0083 0.976562 28.5161 0.976562 27.9086L1.58688 9.27297C1.58688 8.66547 2.0875 8.17328 2.70344 8.17328L15.7478 6.94141C16.6028 6.94141 17.2975 7.62484 17.2975 8.46578V26.1845C17.2975 27.0227 16.6056 27.7061 15.7478 27.7061Z" fill="#C62828"/>
<path d="M22.1479 23.5352H13.8566L13.6035 27.903L16.191 28.1448C16.191 28.1448 16.7451 29.5286 17.9995 29.5286C19.2538 29.5286 19.8079 28.1448 19.8079 28.1448L22.3954 27.903L22.1479 23.5352Z" fill="#424242"/>
<path d="M22.3713 28.2452L19.9609 28.0371" stroke="#616161" stroke-width="0.78125" stroke-miterlimit="10"/>
<path d="M13.6289 28.2452L16.0392 28.0371" stroke="#616161" stroke-width="0.78125" stroke-miterlimit="10"/>
<path d="M33.652 9.23047L32.527 7.68359L18.0005 24.193L3.47391 7.68359L2.34891 9.23047L2.19141 27.6102C2.19141 27.6102 5.17828 27.9842 9.16922 27.5792C12.6455 27.2277 14.2823 26.3277 15.4439 26.5611C16.8389 26.8423 17.092 27.7002 17.137 27.8464C17.2636 28.2514 17.5139 28.5664 18.0005 28.5664C18.487 28.5664 18.7036 28.3977 18.8527 27.897C18.8977 27.7508 19.162 26.8452 20.557 26.5639C21.7186 26.3305 23.3555 27.2305 26.8317 27.582C30.8227 27.987 33.8095 27.613 33.8095 27.613L33.652 9.23047Z" fill="#94C6D6"/>
<path d="M32.1465 25.8382L32.1915 18.416H33.7299L33.8087 27.6101C33.8087 27.6101 32.5852 27.1348 32.1465 25.8382Z" fill="url(#paint0_linear_8671_9689)"/>
<path d="M32.2169 21.5137L32.1466 25.8421C32.1466 25.8421 28.7828 25.6677 23.425 24.7396C19.9206 24.1321 17.9997 26.0784 17.9997 26.0784L17.9688 21.5137H32.2169Z" fill="url(#paint1_linear_8671_9689)"/>
<path d="M3.7832 21.5137L3.85352 25.8421C3.85352 25.8421 7.21727 25.6677 12.5751 24.7396C16.0795 24.1321 18.0004 26.0784 18.0004 26.0784L17.9695 21.5137H3.7832Z" fill="url(#paint2_linear_8671_9689)"/>
<path d="M3.85359 25.8382L3.80859 18.416H2.26734L2.19141 27.6101C2.19141 27.6101 3.41203 27.1348 3.85359 25.8382Z" fill="url(#paint3_linear_8671_9689)"/>
<path d="M32.5267 7.68331C32.5267 7.68331 25.0623 6.27988 21.7858 6.09707C18.7033 5.9255 18.0705 7.49488 18.0086 7.68331H17.9973C17.9327 7.49488 17.2998 5.92832 14.2173 6.09707C10.9408 6.27988 3.47641 7.68331 3.47641 7.68331L3.14453 25.7958C3.14453 25.7958 12.032 23.9339 14.1836 24.1758C16.3352 24.4177 18.0002 26.0771 18.0002 26.0771V26.0743V26.0771C18.0002 26.0771 19.668 24.4177 21.8195 24.1758C23.9711 23.9339 32.8586 25.7958 32.8586 25.7958L32.5267 7.68331Z" fill="#F5F5F5"/>
<path opacity="0.26" d="M15.0812 6.09961L13.5625 24.1559C13.8016 24.1502 14.0125 24.1559 14.1812 24.1755C16.33 24.4146 18.0006 26.0768 18.0006 26.0768L17.9528 7.68305C17.9528 7.68305 17.5872 6.24305 15.0812 6.09961Z" fill="#94C6D6"/>
<g opacity="0.5">
<path opacity="0.5" d="M7.11703 8.48828C6.35766 8.62047 5.73609 8.73297 5.38172 8.79484C5.38172 8.96922 5.38172 9.16047 5.37891 9.36578C5.69109 9.30953 6.32672 9.19422 7.11703 9.05641V8.48828Z" fill="#757575"/>
<path opacity="0.5" d="M13.9629 7.58205V8.14174C15.462 8.13893 16.2916 8.5158 16.5645 8.66768C16.5645 8.43424 16.5673 8.22612 16.5673 8.0433C16.1032 7.83518 15.2538 7.57924 13.9629 7.58205Z" fill="#757575"/>
<path opacity="0.5" d="M12.7423 7.65234C11.5245 7.77609 9.82852 8.03484 8.33789 8.28234V8.85328C9.81727 8.60859 11.516 8.34703 12.7423 8.21766V7.65234Z" fill="#757575"/>
<path opacity="0.5" d="M9.74758 10.0801C7.9307 10.3613 6.1082 10.6876 5.37695 10.8198V11.3907C6.01258 11.2754 7.87727 10.9379 9.74758 10.6482V10.0801Z" fill="#757575"/>
<path opacity="0.5" d="M13.1316 9.64138C12.5381 9.68919 11.7816 9.78482 10.9688 9.89732V10.4654C11.7984 10.3473 12.5747 10.2517 13.1766 10.2011C15.1959 10.0351 16.2619 10.5301 16.56 10.6989V10.0717C16.0088 9.82701 14.9034 9.49513 13.1316 9.64138Z" fill="#757575"/>
<path opacity="0.5" d="M7.41883 12.4844C6.53008 12.6362 5.78758 12.7684 5.37695 12.8444V13.4153C5.74539 13.3478 6.49914 13.2128 7.41883 13.0553V12.4844Z" fill="#757575"/>
<path opacity="0.5" d="M16.5587 12.1054C16.0102 11.8579 14.9021 11.5204 13.1134 11.6695C11.9687 11.7623 10.2165 12.0239 8.63867 12.2826V12.8535C10.2305 12.592 12.008 12.3276 13.1612 12.232C15.2143 12.0632 16.283 12.5779 16.5587 12.7382V12.1054Z" fill="#757575"/>
<path opacity="0.5" d="M16.5628 14.1386C16.02 13.8911 14.9063 13.5452 13.1034 13.6942C12.9206 13.7083 12.7238 13.728 12.5156 13.7505V14.3158C12.7434 14.2905 12.9544 14.2708 13.1512 14.2539C15.2438 14.0824 16.3125 14.6195 16.5656 14.7714C16.5628 14.5605 16.5628 14.3495 16.5628 14.1386Z" fill="#757575"/>
<path opacity="0.5" d="M11.2908 13.9023C9.09141 14.2033 6.35203 14.6898 5.37891 14.867V15.438C6.23672 15.2805 9.04078 14.777 11.2908 14.4677V13.9023Z" fill="#757575"/>
<path opacity="0.5" d="M7.94391 16.4434C6.83859 16.629 5.88234 16.8005 5.37891 16.8905V17.4615C5.83453 17.3771 6.80484 17.2027 7.94391 17.0115V16.4434Z" fill="#757575"/>
<path opacity="0.5" d="M16.5648 16.1738C16.0277 15.9263 14.9083 15.5719 13.0886 15.721C12.0761 15.8053 10.5911 16.0163 9.16797 16.2441V16.8122C10.6052 16.5816 12.1155 16.365 13.1336 16.2806C15.2795 16.1035 16.3511 16.6772 16.5648 16.8066V16.1738Z" fill="#757575"/>
<path opacity="0.5" d="M16.5712 20.2436C16.0593 19.9989 14.9512 19.6304 13.123 19.7683V20.3336C15.4546 20.1451 16.5121 20.8426 16.5712 20.8848V20.2436Z" fill="#757575"/>
<g opacity="0.5">
<path opacity="0.5" d="M7.4182 20.582C6.55195 20.7311 5.81508 20.8605 5.38477 20.9392V21.5102C5.78133 21.437 6.52383 21.3048 7.4182 21.1502V20.582Z" fill="#757575"/>
<path opacity="0.5" d="M8.63867 20.3794V20.9503C9.72992 20.7731 10.9027 20.5931 11.9012 20.4666V19.8984C10.9084 20.0222 9.73555 20.1994 8.63867 20.3794Z" fill="#757575"/>
</g>
<g opacity="0.5">
<path opacity="0.5" d="M10.5946 22.0996C8.58086 22.3921 6.3168 22.7943 5.38867 22.963V23.534C6.22961 23.3793 8.53586 22.9687 10.5946 22.6677V22.0996Z" fill="#757575"/>
<path opacity="0.5" d="M16.5732 22.2793C16.0641 22.0318 14.9307 21.6465 13.0407 21.8012C12.6835 21.8293 12.2673 21.8771 11.8145 21.9334V22.4987C12.2841 22.4396 12.7173 22.3918 13.0857 22.3609C15.4932 22.1612 16.5507 22.9093 16.562 22.9149L16.576 22.8981C16.576 22.704 16.576 22.4987 16.5732 22.2793Z" fill="#757575"/>
</g>
<g opacity="0.5">
<path opacity="0.5" d="M10.1753 18.1133C8.25719 18.4002 6.22375 18.763 5.38281 18.9177V19.4886C6.13656 19.3508 8.20938 18.9795 10.1753 18.6814V18.1133Z" fill="#757575"/>
<path opacity="0.5" d="M16.5678 18.208C16.0391 17.9605 14.9169 17.5948 13.0719 17.7467C12.5994 17.7861 12.0228 17.8536 11.3984 17.938V18.5061C12.0425 18.4189 12.6359 18.3486 13.1197 18.3092C15.3359 18.1264 16.4075 18.7423 16.5706 18.8464C16.5678 18.6383 16.5678 18.4245 16.5678 18.208Z" fill="#757575"/>
</g>
</g>
<g opacity="0.5">
<path opacity="0.5" d="M24.8661 8.35523C27.1948 8.66461 30.238 9.21586 31.0648 9.36492C31.0648 9.1568 31.0648 8.96836 31.062 8.79398C30.0945 8.6168 27.133 8.08805 24.8633 7.78711V8.35523H24.8661Z" fill="#757575"/>
<path opacity="0.5" d="M23.6429 7.64714C23.522 7.63589 23.4066 7.62464 23.297 7.61621C21.5335 7.46996 20.431 7.79902 19.877 8.04371C19.877 8.22652 19.8798 8.43746 19.8798 8.66808C20.1948 8.49371 21.2607 8.01277 23.252 8.17589C23.3757 8.18714 23.5079 8.19839 23.6429 8.21246V7.64714Z" fill="#757575"/>
<path opacity="0.5" d="M28.7891 10.992C29.5493 11.1214 30.3086 11.2554 31.0672 11.3941V10.8232C30.6256 10.7416 29.7875 10.5926 28.7891 10.4238V10.992Z" fill="#757575"/>
<path opacity="0.5" d="M27.5694 10.2179C26.0478 9.97326 24.4053 9.73138 23.3141 9.64138C21.5422 9.49513 20.4369 9.82701 19.8828 10.0717V10.6989C20.1809 10.5301 21.2469 10.0351 23.2663 10.2011C24.3659 10.2911 26.0338 10.5386 27.5666 10.7861V10.2179H27.5694Z" fill="#757575"/>
<path opacity="0.5" d="M27.332 12.2031V12.7713C28.9661 13.0328 30.4877 13.3084 31.067 13.4153V12.8444C30.4117 12.7262 28.9183 12.4591 27.332 12.2031Z" fill="#757575"/>
<path opacity="0.5" d="M24.8638 13.8649C24.2984 13.7918 23.7753 13.7299 23.3422 13.6962C21.5394 13.5471 20.4256 13.8931 19.8828 14.1406V14.7734C20.1359 14.6243 21.2075 14.0843 23.2972 14.2559C23.7416 14.2924 24.2816 14.3543 24.8638 14.4331V13.8649Z" fill="#757575"/>
<path opacity="0.5" d="M26.0859 14.0371V14.6052C28.125 14.909 30.3216 15.3055 31.0641 15.4405V14.8696C30.2259 14.7149 28.0744 14.3324 26.0859 14.0371Z" fill="#757575"/>
<path opacity="0.5" d="M26.3347 16.0978C25.2237 15.9291 24.1466 15.7856 23.3591 15.721C21.5366 15.5719 20.4172 15.9263 19.8828 16.1738V16.8094C20.0966 16.6772 21.1681 16.1063 23.3141 16.2835C24.11 16.3481 25.2097 16.4972 26.3375 16.6688V16.0978H26.3347Z" fill="#757575"/>
<path opacity="0.5" d="M27.5547 16.2891V16.86C29.0847 17.1075 30.4853 17.3606 31.0619 17.4647V16.8938C30.4206 16.7756 29.0425 16.5281 27.5547 16.2891Z" fill="#757575"/>
<path opacity="0.5" d="M29.543 18.6465V19.2174C30.2067 19.3327 30.7495 19.4312 31.0589 19.4874V18.9165C30.7214 18.8546 30.187 18.759 29.543 18.6465Z" fill="#757575"/>
<g opacity="0.5">
<path opacity="0.5" d="M25.1138 19.9713C24.4698 19.8841 23.8735 19.8138 23.3898 19.7744C21.5223 19.6197 20.3945 19.9966 19.877 20.2441V20.8854C19.936 20.8432 20.9991 20.14 23.3476 20.3341C23.8426 20.3735 24.4557 20.4466 25.1195 20.5366V19.9713H25.1138Z" fill="#757575"/>
<path opacity="0.5" d="M26.334 20.1465V20.7146C28.269 21.0071 30.2996 21.3727 31.059 21.5105V20.9396C30.2152 20.7877 28.224 20.4334 26.334 20.1465Z" fill="#757575"/>
</g>
<g opacity="0.5">
<path opacity="0.5" d="M27.3327 22.325C25.9067 22.0972 24.4161 21.8834 23.4036 21.799C21.5108 21.6444 20.3802 22.0325 19.8711 22.2772V22.8959L19.8852 22.9128C19.8936 22.9072 20.9511 22.159 23.3614 22.3587C24.3823 22.4431 25.8983 22.6625 27.3383 22.8931V22.325H27.3327Z" fill="#757575"/>
<path opacity="0.5" d="M28.5566 22.5273V23.0983C29.6507 23.2811 30.5845 23.4498 31.057 23.537V22.9661C30.5423 22.8705 29.6198 22.7045 28.5566 22.5273Z" fill="#757575"/>
</g>
<g opacity="0.5">
<path opacity="0.5" d="M23.3251 17.7435C21.5082 17.6 20.4001 17.9629 19.877 18.2075V18.846C20.0401 18.7419 21.1088 18.126 23.3251 18.3088V17.7435Z" fill="#757575"/>
<path opacity="0.5" d="M24.5488 17.873V18.4384C25.7076 18.5846 27.0998 18.804 28.3232 19.0065V18.4355C27.0913 18.233 25.6991 18.0165 24.5488 17.873Z" fill="#757575"/>
</g>
<g opacity="0.5">
<path opacity="0.5" d="M22.4216 11.6348C21.1616 11.6432 20.332 11.902 19.8848 12.1045V12.7345C20.121 12.5995 20.9282 12.2085 22.4216 12.1945V11.6348Z" fill="#757575"/>
<path opacity="0.5" d="M23.6426 11.6973V12.2626C24.3429 12.3329 25.212 12.451 26.1091 12.5832V12.0151C25.2091 11.8801 24.3429 11.7648 23.6426 11.6973Z" fill="#757575"/>
</g>
</g>
<path d="M20.0139 27.6882C19.6989 27.6601 19.4092 27.8542 19.308 28.1551C19.1561 28.6136 18.8017 29.2126 18.0002 29.2126C17.1902 29.2126 16.833 28.6107 16.6783 28.1523C16.6301 28.0086 16.5353 27.8852 16.4089 27.8016C16.2825 27.718 16.1318 27.6791 15.9808 27.6911L15.8711 27.6995L15.8739 27.7895C15.8739 28.3527 16.0976 28.8928 16.4958 29.291C16.8941 29.6892 17.4342 29.9129 17.9973 29.9129C18.5605 29.9129 19.1006 29.6892 19.4988 29.291C19.8971 28.8928 20.1208 28.3527 20.1208 27.7895C20.1208 27.7614 20.118 27.6967 20.118 27.6967L20.0139 27.6882Z" fill="#616161"/>
<defs>
<linearGradient id="paint0_linear_8671_9689" x1="32.9742" y1="24.8063" x2="33.0437" y2="19.9398" gradientUnits="userSpaceOnUse">
<stop offset="0.267" stop-color="#82AEC0"/>
<stop offset="1" stop-color="#82AEC0" stop-opacity="0"/>
</linearGradient>
<linearGradient id="paint1_linear_8671_9689" x1="19.6638" y1="23.7949" x2="31.7044" y2="23.7949" gradientUnits="userSpaceOnUse">
<stop stop-color="#2F7889"/>
<stop offset="1" stop-color="#82AEC0"/>
</linearGradient>
<linearGradient id="paint2_linear_8671_9689" x1="16.307" y1="23.7949" x2="4.29311" y2="23.7949" gradientUnits="userSpaceOnUse">
<stop stop-color="#2F7889"/>
<stop offset="1" stop-color="#82AEC0"/>
</linearGradient>
<linearGradient id="paint3_linear_8671_9689" x1="3.02475" y1="24.8063" x2="2.955" y2="19.9398" gradientUnits="userSpaceOnUse">
<stop offset="0.267" stop-color="#82AEC0"/>
<stop offset="1" stop-color="#82AEC0" stop-opacity="0"/>
</linearGradient>
</defs>
</svg>
