<svg width="36" height="36" viewBox="0 0 36 36" fill="none" xmlns="http://www.w3.org/2000/svg">
<path d="M33.5481 31.55V31.3587H33.5369C33.4019 27.41 27.5266 21.9959 23.5834 21.9959H23.1953V20.5109C24.1853 19.6841 25.0234 18.3762 25.6703 16.8772C26.5225 16.6944 27.58 15.3022 27.8388 13.6428C28.0384 12.3744 27.9288 11.2494 27.0344 11.2494C27.0597 10.9203 27.085 10.5828 27.085 10.2622C27.085 9.80938 27.0541 9.37062 27.0091 8.93469C26.6912 4.34469 23.7663 1.625 19.9216 0.66875C19.8991 0.663125 19.8766 0.6575 19.8541 0.649062C19.7134 0.618125 19.5756 0.598438 19.4322 0.573125C19.2662 0.539375 19.1003 0.505625 18.9288 0.483125C18.8894 0.4775 18.8528 0.480313 18.8162 0.4775C18.5575 0.452188 18.3016 0.429688 18.0372 0.429688H18.0006C13.0084 0.429688 8.95844 4.04094 8.95844 9.75594C8.95844 10.1947 8.98656 10.6278 9.03437 11.0553C9.04281 11.1791 9.06531 11.3141 9.07656 11.4378C8.45219 11.4378 8.24406 12.5009 8.41844 13.64C8.66312 15.2038 9.63344 16.5566 10.4294 16.8406C11.0734 18.3538 11.9003 19.6897 12.8819 20.5081V21.9931H12.4206C8.48031 21.9931 2.59937 27.4072 2.46437 31.3559H2.45594V31.5359C2.45594 31.5641 2.45312 31.5894 2.45312 31.6175H2.45594V35.9994H33.5481V31.6175V31.55Z" fill="#006CA2"/>
</svg>
