<svg width="36" height="36" viewBox="0 0 36 36" fill="none" xmlns="http://www.w3.org/2000/svg">
<path d="M1.125 34.3125L5.9625 32.625L2.30625 30.9375L1.125 34.3125Z" fill="#F7B600"/>
<path d="M15.1305 20.4758L8.32422 13.6133L7.19922 16.7633L15.1305 20.4758Z" fill="#FFDD7D"/>
<path d="M7.20039 16.7617L5.96289 20.3055L21.0379 27.3367L21.7691 27.1117L15.1316 20.4742L7.20039 16.7617Z" fill="#F7B600"/>
<path d="M4.78125 23.8504L16.0312 29.0816L21.0375 27.3379L5.9625 20.3066L4.78125 23.8504Z" fill="#FFDD7D"/>
<path d="M3.54297 27.3934L10.968 30.8809L16.0305 29.0809L4.78047 23.8496L3.54297 27.3934Z" fill="#F7B600"/>
<path d="M3.54414 27.3945L2.30664 30.9383L5.96289 32.6258L10.9691 30.882L3.54414 27.3945Z" fill="#FFDD7D"/>
<path d="M17.9444 17.5504C21.7131 21.2629 23.6819 25.4254 22.3319 26.7754C20.9256 28.1254 16.7631 26.2129 12.9381 22.4441C9.16938 18.7316 7.20063 14.5691 8.55063 13.2191C9.95688 11.8691 14.1194 13.8379 17.9444 17.5504Z" fill="#493816"/>
<path d="M13.2196 8.15601C12.3196 6.86226 13.2758 6.29976 14.5133 6.52476C13.3321 5.11851 14.0633 4.10601 15.9196 4.49976C16.4821 4.61226 15.6946 5.56851 15.1883 5.56851C16.7071 6.69351 15.8633 7.93101 14.2321 7.64976C15.6946 9.61851 13.2196 9.11226 12.0946 9.22476C11.8133 10.6873 13.5008 12.3748 12.9383 12.3748C11.7008 12.3748 9.67583 7.70601 13.2196 8.15601Z" fill="#42ADE2"/>
<path d="M25.0301 10.8564C24.1864 11.2502 21.8239 7.53767 24.7489 7.48142C23.0614 5.96267 23.2864 5.23142 25.5364 5.17517C22.9489 2.58767 27.0551 1.68767 27.4489 3.03767C27.5614 3.43142 26.2114 2.70017 25.7614 3.43142C25.2551 4.27517 28.9114 6.46892 25.1426 6.30017C26.5489 7.70642 26.6051 8.38142 24.4114 8.60642C24.6926 9.05642 25.5926 10.6314 25.0301 10.8564Z" fill="#FF8736"/>
<path d="M25.9883 19.6316L26.832 18.9004C26.832 18.9004 27.6195 20.0816 28.182 20.5316C28.632 18.5066 28.5195 17.3254 30.8258 18.6754C29.532 15.1879 31.6695 16.4816 33.7508 17.4379C33.6383 16.5379 33.7508 16.6504 34.6508 16.3691C35.4383 19.3504 33.3008 18.4504 31.6133 17.4941C32.6258 20.1941 31.557 20.0254 29.4195 19.1254C29.3633 20.2504 29.0258 21.5441 28.3508 21.6566C27.5633 21.8816 25.9883 19.6316 25.9883 19.6316Z" fill="#ED4C5C"/>
<path d="M19.6883 11.3063C18.6758 12.6562 17.0445 13.3875 15.8633 14.5687C14.6258 15.8062 13.8945 19.1812 13.8945 19.1812C13.8945 19.1812 14.3445 15.6375 15.5258 14.2875C16.5945 13.05 18.1695 12.15 19.0133 10.7438C20.4758 8.15625 19.1258 4.78125 17.2133 2.8125C17.607 2.475 18.1695 2.025 18.4508 1.6875C20.307 3.99375 21.882 8.4375 19.6883 11.3063Z" fill="#C28FEF"/>
<path d="M21.4316 14.1742C19.9691 15.2429 18.9004 16.8179 17.8879 18.2804C16.9879 19.5742 14.1191 21.2054 14.1191 21.2054C14.1191 21.2054 16.8191 19.3492 17.6629 17.9992C18.6754 16.3117 19.6879 14.5679 21.2629 13.3304C24.4129 10.9117 28.9691 11.1367 32.5129 12.4304C32.2879 12.9367 31.8941 14.0054 31.8941 14.0054C31.8941 14.0054 24.4129 11.9804 21.4316 14.1742Z" fill="#FF8736"/>
<path d="M27.675 13.8934C26.7188 15.1309 26.2688 16.6496 25.5375 18.0559C24.8625 19.3496 23.9625 20.5871 22.6688 21.2621C21.2062 21.9934 18 21.7684 18 21.7684C18 21.7684 21.2062 21.7121 22.5562 20.8121C23.9062 19.9121 24.6375 18.3371 25.1438 16.8746C26.1563 14.0621 27.3938 11.0246 30.3188 9.78711C30.4875 10.2934 30.8813 11.3621 30.8813 11.3621C30.8813 11.3621 29.25 11.8121 27.675 13.8934Z" fill="#42ADE2"/>
<path d="M1.80469 8.05811L3.39544 6.4668L4.98675 8.05755L3.396 9.64942L1.80469 8.05811Z" fill="#42ADE2"/>
<path d="M4.03516 13.0478L5.62534 11.457L7.21609 13.0478L5.62534 14.6385L4.03516 13.0478Z" fill="#FF8736"/>
<path d="M8.07617 5.52434L9.66692 3.93359L11.2577 5.52434L9.66692 7.11509L8.07617 5.52434Z" fill="#ED4C5C"/>
<path d="M25.4277 24.5796L27.0185 22.9883L28.6092 24.5796L27.0185 26.1703L25.4277 24.5796Z" fill="#C28FEF"/>
<path d="M21.8828 30.0322L23.4736 28.4414L25.0649 30.0327L23.4736 31.6235L21.8828 30.0322Z" fill="#ED4C5C"/>
<path d="M28.8438 31.2788L30.4345 29.6875L32.0252 31.2788L30.4345 32.8696L28.8438 31.2788Z" fill="#FF8736"/>
<path d="M30.4199 24.0361L32.0107 22.4453L33.6014 24.0361L32.0107 25.6274L30.4199 24.0361Z" fill="#42ADE2"/>
<path d="M27.7637 7.21241L29.3544 5.62109L30.9457 7.21241L29.355 8.80316L27.7637 7.21241Z" fill="#42ADE2"/>
<path d="M10.7109 16.7587L12.3023 15.168L13.893 16.7587L12.3023 18.35L10.7109 16.7587Z" fill="#ED4C5C"/>
</svg>
