<svg width="32" height="32" viewBox="0 0 32 32" fill="none" xmlns="http://www.w3.org/2000/svg">
<path d="M12.803 19.3603L12.8447 19.4695C12.8577 19.5048 12.8773 19.552 12.8941 19.6017L12.9548 19.7764C12.9786 19.8432 12.9979 19.9107 13.0232 19.9889C13.0473 20.066 13.0759 20.1523 13.0983 20.2372L13.1764 20.5166C13.2021 20.614 13.2238 20.7117 13.2498 20.8182C13.3615 21.2781 13.4408 21.7452 13.4872 22.2161C13.5138 22.4667 13.5251 22.7165 13.5307 22.9734C13.5311 23.2251 13.525 23.4833 13.5015 23.7355C13.4783 23.9863 13.4402 24.2355 13.3874 24.4818C13.3344 24.7235 13.2644 24.9611 13.178 25.193C13.0056 25.6526 12.764 26.0773 12.45 26.4528C12.2947 26.6422 12.1132 26.8111 11.9334 26.9861C11.751 27.1585 11.5644 27.3309 11.3696 27.498C10.9756 27.8399 10.5641 28.1608 10.1365 28.4596C9.70477 28.7632 9.25064 29.0445 8.78483 29.3025C8.55148 29.4305 8.31501 29.5527 8.07564 29.6691C7.83704 29.7837 7.59567 29.8924 7.35177 29.9952C6.86527 30.1981 6.37508 30.3743 5.88908 30.5202C5.41989 30.6619 4.944 30.7804 4.46314 30.8753C3.54352 31.0587 2.69945 31.1338 2.07208 31.1499L1.84777 31.1538L1.64633 31.1536L1.3202 31.1449L1.11114 31.1327L1.03727 31.1263L1.03089 31.0524L1.01864 30.8433L1.00995 30.5172L1.00977 30.3158L1.01364 30.0915C1.0297 29.4641 1.10483 28.62 1.28827 27.7004C1.38313 27.2195 1.5016 26.7437 1.64327 26.2745C1.7892 25.7885 1.96539 25.2982 2.16833 24.8118C2.27112 24.5679 2.37984 24.3265 2.49439 24.0879C2.61064 23.8494 2.73252 23.6122 2.86095 23.3787C3.11902 22.9129 3.40027 22.4588 3.70389 22.027C4.00262 21.5995 4.32358 21.1879 4.66545 20.794C4.83258 20.5991 5.00495 20.4125 5.17739 20.2301C5.35233 20.0503 5.52127 19.8688 5.7107 19.7135C6.0862 19.3996 6.51089 19.1579 6.97052 18.9856C7.20237 18.8992 7.44002 18.8292 7.6817 18.7761C7.92796 18.7233 8.17715 18.6852 8.42795 18.6621C8.68014 18.6385 8.93839 18.6325 9.19008 18.6328C9.44695 18.6383 9.6967 18.6497 9.94739 18.6763C10.4183 18.7227 10.8854 18.802 11.3453 18.9137C11.4517 18.9397 11.5495 18.9614 11.6469 18.9871L11.9263 19.0653C12.0111 19.0877 12.0975 19.1162 12.1746 19.1403C12.2528 19.1656 12.3203 19.185 12.3871 19.2087L12.5618 19.2694C12.6115 19.2862 12.6587 19.3058 12.694 19.3188C12.7658 19.346 12.803 19.3603 12.803 19.3603Z" fill="#FFB636"/>
<path d="M4.80376 11.3605L0.271634 15.8926C-0.0416165 16.2058 0.180259 16.7415 0.623259 16.7415H4.43232C4.5642 16.7415 4.6907 16.7938 4.78395 16.8871L7.2572 19.3603L11.2741 11.2148H5.15538C5.09008 11.2148 5.02541 11.2277 4.96508 11.2527C4.90475 11.2777 4.84993 11.3143 4.80376 11.3605Z" fill="#FF473E"/>
<path d="M13.5098 24.5365L15.983 27.0097C16.0763 27.103 16.1286 27.2295 16.1286 27.3613V31.1704C16.1286 31.6134 16.6643 31.8353 16.9775 31.522L21.5097 26.9899C21.6029 26.8966 21.6553 26.7702 21.6553 26.6383V20.5195L13.5098 24.5365Z" fill="#FF473E"/>
<path d="M31.6025 1.11766L31.6073 1.15747C31.6103 1.18366 31.616 1.22404 31.6201 1.27385C31.6283 1.37341 31.6469 1.52766 31.6557 1.71341C31.684 2.09554 31.703 2.63347 31.6896 3.28066C31.6767 3.92822 31.6311 4.68466 31.5322 5.50579C31.5101 5.71366 31.4785 5.91947 31.448 6.13335C31.4197 6.34941 31.3794 6.56047 31.3426 6.78166C31.267 7.2221 31.1726 7.67029 31.0636 8.12747C30.8367 9.07632 30.5485 10.0095 30.2008 10.921C29.8422 11.8598 29.4118 12.7976 28.9074 13.7085C28.4022 14.6187 27.8275 15.5065 27.1852 16.3504C26.5438 17.1951 25.8356 17.9967 25.0758 18.7465C24.316 19.4965 23.5055 20.1957 22.654 20.8303C22.4411 20.9889 22.2269 21.1448 22.0079 21.294C21.7913 21.4457 21.57 21.5907 21.3494 21.7343C20.9061 22.0194 20.4535 22.2862 19.9962 22.5366C19.0959 23.0291 18.1632 23.4598 17.2044 23.8257C16.2934 24.1726 15.3614 24.4618 14.4141 24.6918C13.958 24.8018 13.5121 24.8985 13.0725 24.9748L12.7488 25.0332C12.6415 25.0515 12.5327 25.0667 12.4271 25.0832L12.1136 25.131L11.8028 25.1706C10.9861 25.2739 10.2346 25.3245 9.59183 25.3422C8.94971 25.3606 8.41483 25.3447 8.03708 25.3208C7.85321 25.3138 7.69996 25.2962 7.60158 25.2893C7.55227 25.2857 7.51221 25.2802 7.48633 25.2776L7.4469 25.2732C7.14802 25.2399 6.92133 25.0027 6.88946 24.7158L6.88508 24.6764C6.88246 24.6505 6.87702 24.6105 6.8734 24.5612C6.86646 24.4628 6.84883 24.3096 6.8419 24.1257C6.81802 23.7479 6.80215 23.2131 6.82046 22.5709C6.83815 21.9281 6.88877 21.1767 6.99208 20.36L7.03165 20.0491L7.07946 19.7357C7.09602 19.63 7.11121 19.5213 7.12952 19.414L7.18783 19.0903C7.26415 18.6506 7.3609 18.2048 7.47083 17.7486C7.70078 16.8013 7.99006 15.8694 8.33696 14.9583C8.7029 13.9996 9.1336 13.0668 9.62608 12.1665C9.87652 11.7093 10.1433 11.2566 10.4284 10.8133C10.572 10.5928 10.717 10.3715 10.8686 10.1548C11.0178 9.93579 11.1738 9.72166 11.3323 9.50872C11.967 8.65722 12.6662 7.84672 13.4161 7.08697C14.166 6.32716 14.9676 5.61897 15.8123 4.97754C16.6561 4.33529 17.544 3.76054 18.4541 3.25535C19.3651 2.75091 20.3029 2.32054 21.2416 1.96191C22.1532 1.61427 23.0864 1.32606 24.0352 1.0991C24.4924 0.990161 24.9406 0.895786 25.381 0.820161C25.6022 0.783349 25.8133 0.743036 26.0293 0.714724C26.2432 0.684224 26.449 0.652599 26.6569 0.630536C27.478 0.531661 28.2345 0.486036 28.882 0.473099C29.5292 0.459786 30.0671 0.478724 30.4493 0.507036C30.635 0.515849 30.7893 0.534474 30.8888 0.542599C30.9386 0.546724 30.979 0.552411 31.0052 0.555411L31.045 0.560224C31.3431 0.596161 31.5681 0.832349 31.6025 1.11766Z" fill="#ADBBBC"/>
<path d="M15.1942 16.9674L15.2306 17.0659C15.2509 17.1272 15.2783 17.2154 15.2972 17.3137C15.3419 17.5171 15.3567 17.7647 15.2759 17.9801C15.236 18.0884 15.1622 18.1786 15.0928 18.2877L14.862 18.6349L14.3079 19.4669C14.0879 19.7929 13.866 20.1177 13.6422 20.4411C13.3928 20.801 13.1404 21.1587 12.885 21.5144L12.4781 22.0743L12.0554 22.6421C11.7686 23.0219 11.4751 23.4055 11.1766 23.7842C10.8811 24.1616 10.5818 24.536 10.2789 24.9074C9.98005 25.2752 9.68705 25.6381 9.39868 25.9845L8.97562 26.4965C8.83549 26.6619 8.70805 26.8334 8.56005 26.9764C8.41299 27.1202 8.2433 27.2336 8.0483 27.3124C7.85499 27.3928 7.64337 27.4457 7.43874 27.495C7.05302 27.5865 6.66308 27.6591 6.2703 27.7127C6.0888 27.7375 5.91524 27.757 5.7513 27.7717C5.58824 27.7872 5.43049 27.7934 5.29224 27.8033C5.15293 27.8121 5.01993 27.8114 4.9088 27.8153C4.79599 27.8175 4.69443 27.8139 4.61493 27.8137C4.53374 27.8119 4.46887 27.8079 4.42643 27.8064L4.3598 27.8019L4.3553 27.7353C4.35387 27.6929 4.3498 27.6279 4.34799 27.5468C4.34787 27.4673 4.34418 27.3658 4.34643 27.2529C4.3503 27.1417 4.34962 27.0088 4.35843 26.8695C4.3683 26.7312 4.37455 26.5735 4.39005 26.4104C4.40468 26.2465 4.42418 26.0729 4.44905 25.8914C4.50262 25.4986 4.57525 25.1087 4.66668 24.723C4.71605 24.5184 4.76893 24.3068 4.84937 24.1134C4.92812 23.9184 5.04149 23.7487 5.18537 23.6017C5.32837 23.4537 5.4998 23.3263 5.66524 23.1862L6.17724 22.7631C6.52368 22.4747 6.88662 22.1817 7.25443 21.8829C7.62162 21.5835 7.99774 21.2825 8.37755 20.9852C8.75624 20.6867 9.13993 20.3932 9.51968 20.1064L10.0875 19.6837L10.6474 19.2768C11.0031 19.0214 11.3608 18.769 11.7207 18.5196C12.0644 18.2814 12.3919 18.0587 12.6949 17.8539L13.5269 17.2998L13.8741 17.069C13.9831 16.9995 14.0734 16.9258 14.1817 16.8859C14.3971 16.805 14.6447 16.8199 14.8481 16.8646C14.9464 16.8835 15.0346 16.9109 15.0959 16.9312L15.1942 16.9674Z" fill="#FF473E"/>
<path d="M22.6326 12.9164C22.6326 14.7862 21.1168 16.302 19.247 16.302C17.3771 16.302 15.8613 14.7862 15.8613 12.9164C15.8613 11.0466 17.3771 9.53077 19.247 9.53077C21.1168 9.53077 22.6326 11.0466 22.6326 12.9164ZM24.3344 5.67383C23.1441 5.67383 22.1793 6.6387 22.1793 7.82895C22.1793 9.0192 23.1441 9.98408 24.3344 9.98408C25.5246 9.98408 26.4895 9.0192 26.4895 7.82895C26.4895 6.6387 25.5246 5.67383 24.3344 5.67383Z" fill="#2B3B47"/>
</svg>
