<svg width="36" height="36" viewBox="0 0 36 36" fill="none" xmlns="http://www.w3.org/2000/svg">
<path d="M16.9309 27.1545L16.8438 15.1113L18.4103 15.1985L18.4975 27.807L16.9309 27.1545Z" fill="#6AA5AD"/>
<path d="M13.3478 29.4295C12.4281 29.3845 11.9584 30.0792 12.0765 31.3786C12.1947 32.678 12.9597 34.6495 15.6203 34.5989C18.6915 34.5398 18.925 32.4052 18.8744 30.0398C18.8406 28.3945 18.8744 27.0923 18.7872 27.0333C18.7 26.9742 16.5653 26.918 16.4472 27.0361C16.329 27.1542 16.4162 29.7248 16.3881 30.3436C16.36 30.9623 16.4669 32.2055 15.325 32.1745C14.439 32.1492 14.3209 31.4067 14.3209 31.0523C14.3237 30.7008 14.529 29.4886 13.3478 29.4295Z" fill="#3F7377"/>
<path d="M14.6593 10.1845L17.5899 4.91108C17.5899 4.91108 11.8102 4.1967 6.67744 8.18202C0.152435 13.2501 1.18462 18.8048 1.18462 18.8048C1.18462 18.8048 3.67087 16.4367 5.70431 16.6167C7.73775 16.7967 10.2859 19.2576 10.2859 19.2576L14.6593 10.1845Z" fill="#937EF3"/>
<path d="M18.298 6.52746L17.8789 4.91028C17.8789 4.91028 23.7486 4.84559 28.122 7.71153C35.6398 12.639 34.8102 18.1403 34.8102 18.1403C34.8102 18.1403 33.1789 15.8678 29.5958 16.0281C26.0127 16.1884 24.702 19.3862 24.702 19.3862L18.298 6.52746Z" fill="#5547F4"/>
<path d="M24.7115 19.1588C24.7115 19.1588 24.3852 13.7812 23.1365 11.0166C20.8583 5.96812 17.7224 4.99219 17.7224 4.99219C17.7224 4.99219 13.948 6.84844 11.9624 11.4244C9.97679 16.0003 10.3171 19.2319 10.3171 19.2319C10.3171 19.2319 13.3715 15.7416 17.818 16.2225C22.2646 16.7034 24.7115 19.1588 24.7115 19.1588Z" fill="#6E62ED"/>
<path d="M16.6257 5.12816C16.5863 4.97347 16.62 2.90628 16.606 2.46191C16.5863 1.80378 17.146 1.38472 17.6494 1.39878C18.3075 1.41847 18.5382 1.99784 18.5578 2.40284C18.5775 2.80784 18.5803 5.08034 18.5775 5.10847C18.5522 5.34472 18.2063 5.56972 17.5932 5.57253C17.146 5.57253 16.6791 5.34191 16.6257 5.12816Z" fill="#6CA4AB"/>
<path d="M24.6901 19.8531C25.1514 19.8249 26.9936 16.6581 29.8848 16.6862C33.8083 16.7256 34.3145 18.7646 34.7251 18.5537C35.1779 18.3231 34.5114 17.4765 33.9179 16.8634C33.0798 15.9971 31.7383 15.474 29.6542 15.609C26.6195 15.8059 24.662 18.4974 24.662 18.4974C24.662 18.4974 22.0745 15.6737 17.5379 15.6737C13.1504 15.6737 10.3183 18.7956 10.3183 18.7956C10.3183 18.7956 8.88388 16.2587 5.39357 16.1968C2.31107 16.1462 0.977943 18.6296 1.19451 18.8462C1.41107 19.0628 3.05357 17.094 5.357 17.1925C8.52388 17.3275 9.63201 19.974 10.2395 19.9881C10.8442 20.0021 13.2095 16.81 17.5942 16.8859C22.3023 16.9675 24.257 19.8812 24.6901 19.8531Z" fill="#004DAE"/>
</svg>
