<svg width="35" height="35" viewBox="0 0 35 35" fill="none" xmlns="http://www.w3.org/2000/svg">
<path d="M33.8715 32.4848L32.1816 27.9758L31.0195 24.8723C30.757 24.0711 30.7078 23.7402 30.2621 23.2945L27.0301 20.0625L20.0684 27.0242L23.3031 30.259C23.5684 30.5242 24.077 30.7512 24.8781 31.0137L27.9816 32.1758L32.4906 33.8656C33.341 34.1418 34.1477 33.3352 33.8715 32.4848Z" fill="#FFECB3"/>
<path d="M32.4891 33.866L28.7539 32.466C28.7539 32.466 30.2961 32.3785 31.3379 31.3367C32.3797 30.2949 32.4699 28.75 32.4699 28.75L33.8699 32.4852C34.1461 33.3355 33.3395 34.1422 32.4891 33.866Z" fill="#616161"/>
<path d="M11.8077 4.84275L10.3284 10.1174L4.8487 11.8017L1.75339 8.70916C0.900263 7.85603 0.495576 6.15525 2.7569 3.89392L4.12136 2.52947C6.07644 0.574394 7.86198 0.894316 8.71511 1.74744L11.8077 4.84275Z" fill="#EF5350"/>
<path d="M9.37109 12.2066L12.2066 9.37109L28.6758 25.8402C28.6758 25.8402 29.0121 27.2402 28.1562 28.0961C27.3004 28.952 25.8402 28.6758 25.8402 28.6758L9.37109 12.2066Z" fill="#FFC107"/>
<path d="M7.30859 14.2688L23.3266 30.2867C25.9133 30.85 25.8012 28.6379 25.8012 28.6379L9.37031 12.207L7.30859 14.2688Z" fill="#FFA000"/>
<path d="M12.209 9.36836L28.6398 25.7992C28.6398 25.7992 31.5984 25.7992 30.2449 23.2809L14.2707 7.30664L12.209 9.36836Z" fill="#FDD835"/>
<path d="M25.7762 28.9957L9.20312 12.4227L9.58867 12.0371L26.2684 28.7168L25.8391 28.673L25.7762 28.9957Z" fill="#D1762C"/>
<path d="M28.741 26.2906L10.9785 8.52812L11.3668 8.14258L28.9953 25.7711L28.6754 25.8367L28.741 26.2906Z" fill="#F19534"/>
<path opacity="0.2" d="M14.2703 7.30664C14.2703 7.30664 12.7746 9.51875 11.5359 10.7711C9.16523 13.1609 7.30859 14.2684 7.30859 14.2684L7.78711 14.7469C8.46797 14.4816 10.2098 13.6859 11.9488 11.9496C13.6988 10.1996 14.5246 8.49063 14.8008 7.83711L14.2703 7.30664Z" fill="#4E342E"/>
<path d="M6.42308 14.1917C6.5762 14.3448 6.79222 14.4131 7.0055 14.3776C7.0055 14.3776 9.24495 13.694 11.4707 11.4682C13.6965 9.24245 14.4321 7.07409 14.4321 7.07409C14.4676 6.86081 14.3992 6.64205 14.2461 6.48893L11.9 4.14284C11.8016 4.0444 11.6649 3.99245 11.5282 4.00885C11.4817 4.01432 11.4352 4.01979 11.386 4.02799C11.2 4.05534 11.0524 4.19205 11.0004 4.37252C11.0004 4.37252 9.92855 6.45065 8.16214 8.21432C6.39573 9.97799 4.24105 11.0061 4.24105 11.0061C4.06058 11.0553 3.92113 11.2003 3.89378 11.3862V11.3917C3.87191 11.5393 3.92113 11.687 4.02503 11.7909L6.42308 14.1917Z" fill="#94D1E0"/>
<path d="M4.97449 4.97289C6.57942 3.3679 7.49526 1.68159 7.02006 1.20641C6.54486 0.731225 4.85858 1.64712 3.25365 3.25211C1.64871 4.8571 0.732879 6.54341 1.20808 7.01859C1.68327 7.49377 3.36955 6.57788 4.97449 4.97289Z" fill="#FF8383"/>
<path d="M11.3782 5.94423C10.4786 7.66689 8.99927 9.08056 7.23833 9.89814C7.12349 9.95009 6.96216 9.98837 6.8938 9.88447C6.84185 9.80244 6.88833 9.69853 6.94028 9.6165C7.16997 9.26103 7.48716 8.97392 7.79341 8.68134C8.59185 7.91572 9.32466 7.08447 9.98364 6.19853C10.32 5.74736 10.6344 5.28251 10.9297 4.804C11.0938 4.5415 11.3864 3.98642 11.761 4.37744C12.0864 4.71376 11.5504 5.61337 11.3782 5.94423Z" fill="#B9E4EA"/>
<path d="M10.3571 9.15122C10.286 9.22505 10.2122 9.29888 10.1766 9.39458C10.1411 9.49028 10.1548 9.61333 10.2368 9.67349C10.3052 9.72544 10.3981 9.71997 10.4829 9.7063C10.9559 9.63247 11.3743 9.3645 11.7434 9.06372C12.5501 8.41021 13.2337 7.50239 13.2993 6.46606C13.3075 6.34302 13.3048 6.2145 13.2501 6.10513C12.9028 5.4188 12.1673 6.95278 12.0223 7.1688C11.5384 7.88794 10.9614 8.53325 10.3571 9.15122Z" fill="#B9E4EA"/>
</svg>
