<svg width="36" height="36" viewBox="0 0 36 36" fill="none" xmlns="http://www.w3.org/2000/svg">
<path d="M4.38706 7.71468C6.64268 7.02281 8.60862 9.17437 10.2342 8.66249C12.6108 7.91156 13.9889 7.75968 16.5314 8.54718C19.0936 9.34312 22.0833 11.5425 24.2574 13.0641C26.1727 14.4056 28.6589 16.5881 30.3127 18.27C31.3842 19.3612 31.3561 20.1122 31.1452 20.6747C30.8724 21.4003 30.0877 21.7884 29.123 21.7519C29.0217 21.7491 28.943 21.8419 28.9796 21.9375C29.3199 22.8853 29.0049 23.6981 28.5464 24.1031C27.8658 24.7022 27.0867 24.8287 26.198 24.5109C26.176 24.5034 26.1523 24.5019 26.1295 24.5068C26.1067 24.5116 26.0856 24.5226 26.0686 24.5385C26.0516 24.5544 26.0392 24.5746 26.0327 24.597C26.0263 24.6194 26.026 24.6431 26.0321 24.6656C26.2233 25.3997 25.9955 26.1197 25.3908 26.5641C24.7439 27.0366 24.1364 27.0197 23.1577 26.6625C23.0564 26.6259 22.958 26.6991 22.9524 26.8059C22.9299 27.2559 22.5755 27.6019 22.3674 27.8044C21.4533 28.6987 19.8727 28.0884 18.5508 27.4556C15.9549 26.2153 12.4758 23.6025 9.98112 22.1737C7.05331 20.4975 0.11768 16.7991 0.39893 13.7081C0.525493 12.3075 2.30018 8.49374 4.38706 7.71468Z" fill="#E0BB95"/>
<path d="M29.0027 16.9574C29.4584 17.4721 29.6187 18.5718 29.1096 19.3199C28.5584 20.1299 27.7371 20.0765 27.5149 20.2987C27.2899 20.5237 27.5262 21.3252 26.719 22.0452C25.8359 22.8299 24.9134 22.439 24.6096 22.6781C24.3621 22.8721 24.6546 23.6596 23.5802 24.4162C22.4721 25.1981 21.4962 24.8606 21.3218 25.0153C21.0574 25.2515 21.4006 25.6256 20.3543 26.5452C19.3052 27.4649 16.9962 26.084 16.3831 25.859C16.2115 25.7971 15.7334 26.0699 15.7784 26.2471C15.8009 26.3343 20.3037 29.1721 21.8899 29.2059C23.5549 29.2396 25.2677 29.0737 26.7584 28.3256C27.3265 28.0415 27.8496 27.6787 28.3531 27.2934C29.6187 26.3231 30.7915 25.1587 31.4159 23.6906C31.8687 22.6303 32.0093 21.4631 32.0712 20.3099C32.1218 19.379 32.0627 18.3102 31.3371 17.7252C30.7549 17.2556 29.6946 16.9237 29.0027 16.9574Z" fill="#C48E6A"/>
<path d="M29.835 18.7712C31.1119 17.919 34.2028 16.2174 34.9959 14.0883C35.5303 12.654 34.0481 11.4643 33.2634 10.5193C32.2481 9.30147 30.3863 8.36209 28.9041 8.71928C28.0181 8.93303 26.1084 9.61928 24.8991 9.58272C23.4253 9.53491 22.6434 9.48147 21.6731 9.33241C20.9138 9.21709 19.8028 9.35772 18.4106 9.79647C17.0072 10.238 15.8766 10.7471 14.4647 11.664C13.9078 12.0268 13.2356 12.6371 12.87 13.239C12.3159 14.1502 13.0303 15.5846 14.4084 15.7674C16.1859 16.0037 18.0563 14.0743 20.0616 13.239C20.655 12.9915 21.2878 12.6427 22.0781 12.7102C22.9613 12.789 26.7356 15.7983 29.835 18.7712Z" fill="#C48E6A"/>
<path d="M29.7724 19.4884L29.4462 19.1762C25.8799 15.7591 22.6146 13.36 22.0212 13.27C21.9733 13.2672 21.9227 13.2644 21.8721 13.2644C21.408 13.2644 20.9918 13.4472 20.553 13.6384C20.4602 13.6806 20.3674 13.72 20.2746 13.7566C19.5996 14.0378 18.9133 14.4681 18.2496 14.8844C17.0515 15.6353 15.918 16.3469 14.7115 16.3469C14.5821 16.3469 14.4555 16.3384 14.3318 16.3216C13.4571 16.2063 12.7146 15.6719 12.3433 14.8984C12.0283 14.2403 12.0424 13.5091 12.3855 12.9438C12.8327 12.2069 13.6174 11.5375 14.1546 11.1887C15.5299 10.2944 16.714 9.73469 18.2383 9.25375C19.6783 8.80094 20.8821 8.63781 21.7568 8.77281C22.6596 8.91063 23.3965 8.96969 24.9152 9.0175H24.9968C25.8152 9.0175 27.0218 8.66594 27.9049 8.41C28.2424 8.31156 28.5349 8.22719 28.7712 8.17094C29.0243 8.10906 29.2943 8.07812 29.5727 8.07812C31.0015 8.07812 32.6608 8.91344 33.6958 10.1594C33.8252 10.3169 33.9771 10.48 34.1346 10.6516C34.9587 11.5487 36.0865 12.775 35.524 14.2853C34.7758 16.2991 32.2587 17.8966 30.7568 18.85C30.5262 18.9962 30.3208 19.1256 30.1493 19.2409L29.7724 19.4884ZM21.8721 12.1394C21.9537 12.1394 22.038 12.1422 22.1224 12.1506C23.4021 12.2631 27.708 15.9897 29.9018 18.0569C29.9805 18.0062 30.0649 17.9528 30.1521 17.8966C31.5358 17.0191 33.8505 15.5509 34.4665 13.8916C34.7646 13.09 34.1712 12.3587 33.3021 11.4109C33.1333 11.2253 32.9702 11.0481 32.8296 10.8794C32.0083 9.89219 30.6696 9.20313 29.5727 9.20313C29.3843 9.20313 29.2015 9.22281 29.0327 9.265C28.8218 9.31562 28.5405 9.39719 28.2171 9.49281C27.2327 9.77969 25.863 10.1791 24.8758 10.1425C23.3065 10.0919 22.5358 10.0328 21.5824 9.88656C20.8962 9.7825 19.8218 9.93719 18.573 10.3309C17.133 10.7838 16.0671 11.2872 14.7649 12.1337C14.2924 12.4403 13.6708 12.9916 13.3446 13.5287C13.1983 13.7678 13.204 14.0997 13.3558 14.4147C13.5612 14.845 13.9802 15.1431 14.478 15.2078C14.554 15.2191 14.6299 15.2219 14.7087 15.2219C15.5918 15.2219 16.5902 14.5947 17.6477 13.9309C18.3508 13.4894 19.0765 13.0338 19.8387 12.7188C19.923 12.6822 20.0102 12.6456 20.0974 12.6063C20.6037 12.3897 21.1718 12.1394 21.8721 12.1394Z" fill="#C48E6A"/>
<path d="M18.8975 24.1133C18.8975 24.1133 18.8863 25.4464 18.7063 25.8964C18.5263 26.3464 18.4025 26.8948 18.1016 27.2323L18.5825 27.4714C19.3644 26.383 19.5388 26.0145 19.5388 25.2833C19.5359 24.4817 18.8975 24.1133 18.8975 24.1133Z" fill="#C48E6A"/>
<path d="M9.29227 19.3555C9.29227 19.3555 9.7507 20.1008 9.5707 20.5508C9.3907 21.0008 9.29508 21.4592 8.99414 21.7967C8.99414 21.7967 9.10383 21.6786 9.24727 21.7602C9.38508 21.8389 9.29789 22.002 9.29789 22.002L9.73102 21.5127C9.98695 21.1892 10.0038 20.6802 9.8857 20.233C9.73383 19.6536 9.29227 19.3555 9.29227 19.3555Z" fill="#C48E6A"/>
<path d="M12.6048 20.5566C12.6048 20.5566 12.7088 21.9179 12.5316 22.3679C12.3516 22.8179 12.256 23.2763 11.9551 23.6138C11.9551 23.6138 12.1295 23.5238 12.2701 23.6026C12.4079 23.6813 12.332 23.9007 12.332 23.9007L12.9563 23.1695C13.2123 22.846 13.3135 22.247 13.2657 21.7154C13.1982 20.9673 12.6048 20.5566 12.6048 20.5566Z" fill="#C48E6A"/>
<path d="M16.3988 21.9062C16.3988 21.9062 15.7941 23.9425 15.6141 24.3925C15.4341 24.8425 15.3498 25.3122 15.0488 25.6497C15.0488 25.6497 15.2176 25.5428 15.3582 25.6216C15.496 25.7003 15.4173 25.9253 15.4173 25.9253L16.1766 25.0422C16.4326 24.7188 16.9726 23.8778 16.9698 23.0284C16.9641 22.2269 16.3988 21.9062 16.3988 21.9062Z" fill="#C48E6A"/>
<path d="M18.958 26.8168C17.9652 27.8518 16.992 28.5353 16.092 27.669C15.2061 26.8196 15.8333 25.8071 16.8261 24.7693C17.8189 23.7315 18.9833 23.0509 19.7849 23.8215C20.6005 24.6062 19.9508 25.7818 18.958 26.8168Z" fill="#C48E6A"/>
<path d="M16.9739 28.3438C16.5857 28.3438 16.2257 28.1834 15.8995 27.8713C15.4073 27.3987 15.2695 26.8363 15.4917 26.1978C15.6548 25.7281 16.0148 25.2134 16.6251 24.575C17.2214 23.9534 18.1186 23.2109 18.9848 23.2109C19.3617 23.2109 19.6964 23.3488 19.9804 23.6188C20.4389 24.0575 20.5542 24.6453 20.3179 25.3175C20.1351 25.8322 19.747 26.4031 19.1648 27.0106C18.5292 27.6716 17.7754 28.3438 16.9739 28.3438ZM18.9848 23.7734C18.4617 23.7734 17.767 24.1981 17.0301 24.9659C16.4789 25.5425 16.1582 25.9925 16.0204 26.3834C15.8714 26.8137 15.9529 27.1484 16.2876 27.4663C16.5098 27.6772 16.732 27.7812 16.9739 27.7812C17.5673 27.7812 18.2367 27.1597 18.7542 26.6197C19.2745 26.0769 19.6317 25.5622 19.7836 25.1291C19.9495 24.6622 19.8876 24.3106 19.5867 24.0237C19.4151 23.855 19.2154 23.7734 18.9848 23.7734Z" fill="#C48E6A"/>
<path d="M15.9559 25.0859C14.5131 26.7368 13.5202 27.2571 12.5246 26.3037C11.5459 25.3643 12.4065 24.169 13.599 22.8246C15.1121 21.1231 16.2596 20.6393 17.1456 21.4859C18.0484 22.3549 17.4915 23.3281 15.9559 25.0859Z" fill="#C48E6A"/>
<path d="M13.5447 27.0603C13.1144 27.0603 12.7178 26.8803 12.3297 26.5063C11.0444 25.2744 12.4562 23.6881 13.39 22.6391C14.5066 21.3819 15.4009 20.7969 16.2025 20.7969C16.6216 20.7969 17.0041 20.96 17.3387 21.2834C18.5031 22.4 17.5441 23.6938 16.1659 25.2688C15.0691 26.5259 14.2844 27.0603 13.5447 27.0603ZM16.2025 21.3622C15.5894 21.3622 14.785 21.9191 13.8091 23.0131C12.5519 24.425 11.9725 25.3841 12.7178 26.1013C12.9962 26.3684 13.2662 26.4978 13.5447 26.4978C14.0987 26.4978 14.7766 26.0056 15.7412 24.9003C17.3528 23.0581 17.6228 22.3381 16.9478 21.6913C16.7172 21.4691 16.4725 21.3622 16.2025 21.3622Z" fill="#C48E6A"/>
<path d="M12.431 23.433C11.3397 24.5636 10.2878 25.3201 9.34002 24.4089C8.40908 23.5173 9.14596 22.457 10.1894 21.2814C11.3313 19.9905 12.5378 19.3914 13.3816 20.1986C14.2394 21.0226 13.7585 22.0576 12.431 23.433Z" fill="#C48E6A"/>
<path d="M10.251 25.0942C9.85159 25.0942 9.48034 24.9311 9.14565 24.6133C7.91096 23.4292 9.20471 21.9695 9.97815 21.0948C10.8725 20.0852 11.7444 19.5508 12.4982 19.5508C12.9032 19.5508 13.266 19.6998 13.5725 19.9952C13.9072 20.3158 14.0816 20.687 14.09 21.0948C14.1041 21.7867 13.6541 22.5686 12.6303 23.6261C11.9328 24.3517 11.1003 25.0942 10.251 25.0942ZM12.4982 20.1133C11.9188 20.1133 11.1735 20.5942 10.3972 21.4661C9.12034 22.9089 8.90096 23.598 9.53378 24.2055C9.76159 24.4248 9.99503 24.5317 10.2482 24.5317C10.8922 24.5317 11.6432 23.8398 12.2282 23.238C13.1253 22.3098 13.5388 21.632 13.5303 21.1089C13.5247 20.853 13.4122 20.6223 13.1872 20.4058C12.9819 20.2061 12.7597 20.1133 12.4982 20.1133Z" fill="#C48E6A"/>
<path d="M9.35208 21.6728C8.48021 22.5813 7.60552 23.155 6.68302 22.2691C5.7774 21.4 6.29771 20.486 7.16958 19.5775C8.04146 18.6691 9.09896 18.1094 9.92021 18.8969C10.7555 19.6985 10.224 20.7644 9.35208 21.6728Z" fill="#C48E6A"/>
<path d="M7.6385 22.9914C7.2335 22.9914 6.84819 22.817 6.48819 22.4711C5.19444 21.228 6.47975 19.8864 6.96632 19.3802C7.46694 18.8598 8.23194 18.2383 9.03632 18.2383C9.4385 18.2383 9.80132 18.3902 10.1163 18.6911C10.5776 19.1327 10.7266 19.698 10.5494 20.3195C10.4116 20.8033 10.0769 21.3236 9.55944 21.8636C9.05319 22.3895 8.381 22.9914 7.6385 22.9914ZM9.0335 18.8008C8.561 18.8008 7.97038 19.1439 7.37132 19.7711C6.37569 20.8089 6.23788 21.4502 6.87913 22.0661C7.13507 22.3108 7.38257 22.4289 7.64132 22.4289C8.05475 22.4289 8.52163 22.1364 9.15163 21.4783C9.60163 21.0114 9.89694 20.5586 10.0066 20.1677C10.1276 19.7458 10.0348 19.397 9.72538 19.0989C9.51444 18.8992 9.28944 18.8008 9.0335 18.8008Z" fill="#C48E6A"/>
<path d="M30.1521 18.1151C31.4712 17.2348 34.6718 15.4742 35.4903 13.2692C36.0415 11.787 34.5115 10.5551 33.6987 9.57637C32.6496 8.31637 30.7231 7.34324 29.1874 7.71168C28.2706 7.93106 26.2962 8.64262 25.0418 8.60324C23.5146 8.55543 22.7103 8.49918 21.7062 8.34449C20.9187 8.22356 19.7712 8.36981 18.3312 8.82262C16.8799 9.27824 15.7099 9.80418 14.2503 10.7548C13.6765 11.1289 12.979 11.7617 12.6021 12.3861C12.0312 13.3311 12.7681 14.8132 14.194 15.0017C16.0334 15.2464 17.9684 13.2495 20.0412 12.3861C20.6543 12.1301 21.3096 11.7701 22.1253 11.8404C23.0421 11.9276 26.9459 15.0382 30.1521 18.1151Z" fill="#E0BB95"/>
<path d="M18.1837 27.1469C17.205 28.165 16.2515 28.8372 15.3656 27.985C14.4965 27.1497 15.1097 26.1541 16.0884 25.1331C17.0672 24.115 18.209 23.4428 18.9965 24.1994C19.8009 24.9728 19.1625 26.1288 18.1837 27.1469Z" fill="#E0BB95"/>
<path d="M15.2305 25.4463C13.8102 27.0691 12.8343 27.5838 11.8555 26.6444C10.8937 25.7219 11.7374 24.5435 12.913 23.2244C14.4008 21.551 15.5315 21.0729 16.4005 21.9082C17.2865 22.7604 16.7408 23.7194 15.2305 25.4463Z" fill="#E0BB95"/>
<path d="M11.7633 23.8171C10.689 24.928 9.65397 25.6705 8.72303 24.7789C7.80897 23.9014 8.53178 22.858 9.55834 21.7021C10.6833 20.4336 11.8674 19.843 12.6971 20.6389C13.5437 21.4489 13.0712 22.4671 11.7633 23.8171Z" fill="#E0BB95"/>
<path d="M8.73626 22.0873C7.87845 22.9817 7.01783 23.5442 6.10939 22.6751C5.21783 21.8201 5.7297 20.9201 6.58752 20.0286C7.44533 19.1342 8.48595 18.5858 9.29314 19.3592C10.1172 20.1467 9.59408 21.1929 8.73626 22.0873Z" fill="#E0BB95"/>
</svg>
