<svg width="35" height="35" viewBox="0 0 35 35" fill="none" xmlns="http://www.w3.org/2000/svg">
<path d="M14.2188 3.28125H25.1562V29.5312H14.2188V3.28125Z" fill="#3E4347"/>
<path d="M8.75 1.09375H26.25V3.28125H8.75V1.09375Z" fill="#DAE3EA"/>
<path d="M2.1875 3.28125H7.65625V28.4375H2.1875V3.28125Z" fill="#3E4347"/>
<path d="M14.2188 28.4375H29.5312V32.8125H14.2188V28.4375Z" fill="#B2C1C0"/>
<path d="M16.4062 28.4375H18.5938V32.8125H16.4062V28.4375Z" fill="#B4D7EE"/>
<path d="M20.7812 28.4375H22.9688V32.8125H20.7812V28.4375Z" fill="#B4D7EE"/>
<path d="M25.1562 28.4375H27.3438V32.8125H25.1562V28.4375Z" fill="#B4D7EE"/>
<path d="M25.1562 22.9688H30.625V25.1562H25.1562V22.9688Z" fill="#B4D7EE"/>
<path d="M25.1562 17.5H30.625V19.6875H25.1562V17.5Z" fill="#B4D7EE"/>
<path d="M25.1562 12.0312H30.625V14.2188H25.1562V12.0312Z" fill="#B4D7EE"/>
<path d="M25.1562 6.5625H30.625V8.75H25.1562V6.5625Z" fill="#B4D7EE"/>
<path d="M20.7812 22.9688H22.9688V25.1562H20.7812V22.9688Z" fill="#B4D7EE"/>
<path d="M20.7812 17.5H22.9688V19.6875H20.7812V17.5Z" fill="#B4D7EE"/>
<path d="M20.7812 12.0312H22.9688V14.2188H20.7812V12.0312Z" fill="#B4D7EE"/>
<path d="M20.7812 6.5625H22.9688V8.75H20.7812V6.5625Z" fill="#B4D7EE"/>
<path d="M16.4062 22.9688H18.5938V25.1562H16.4062V22.9688Z" fill="#B4D7EE"/>
<path d="M16.4062 17.5H18.5938V19.6875H16.4062V17.5Z" fill="#B4D7EE"/>
<path d="M16.4062 12.0312H18.5938V14.2188H16.4062V12.0312Z" fill="#B4D7EE"/>
<path d="M16.4062 6.5625H18.5938V8.75H16.4062V6.5625Z" fill="#B4D7EE"/>
<path d="M14.2188 25.1562H31.7188V28.4375H14.2188V25.1562Z" fill="#3E4347"/>
<path d="M14.2188 19.6875H31.7188V22.9688H14.2188V19.6875Z" fill="#3E4347"/>
<path d="M14.2188 14.2188H31.7188V17.5H14.2188V14.2188Z" fill="#3E4347"/>
<path d="M14.2188 8.75H31.7188V12.0312H14.2188V8.75Z" fill="#3E4347"/>
<path d="M14.2188 3.28125H31.7188V6.5625H14.2188V3.28125Z" fill="#3E4347"/>
<path d="M7.65625 4.375H14.2188V28.4375H7.65625V4.375Z" fill="#B4D7EE"/>
<path d="M2.1875 28.4375H14.2188V33.9062H2.1875V28.4375Z" fill="#B4D7EE"/>
<path d="M1.09375 27.3438H14.2188V28.4375H1.09375V27.3438Z" fill="#DAE3EA"/>
<path d="M7.65625 20.7812H14.2188V21.875H7.65625V20.7812Z" fill="#D6EEF0"/>
<path d="M7.65625 15.3125H14.2188V16.4062H7.65625V15.3125Z" fill="#D6EEF0"/>
<path d="M7.65625 9.84375H14.2188V10.9375H7.65625V9.84375Z" fill="#D6EEF0"/>
<path d="M7.65625 5.46875H14.2188V6.5625H7.65625V5.46875Z" fill="#D6EEF0"/>
<path d="M7.65625 3.28125H14.2188V4.375H7.65625V3.28125Z" fill="#F5F5F5"/>
<path d="M2.1875 28.4375H3.28125V33.9062H2.1875V28.4375Z" fill="#B2C1C0"/>
<path d="M5.46875 28.4375H6.17969V33.9062H5.46875V28.4375Z" fill="#F5F5F5"/>
<path d="M5.46875 28.4375H12.0312V29.0391H5.46875V28.4375Z" fill="#F5F5F5"/>
<path d="M5.46875 33.3047H12.0312V33.9062H5.46875V33.3047Z" fill="#F5F5F5"/>
<path d="M8.36719 28.4375H9.07812V33.9062H8.36719V28.4375Z" fill="#F5F5F5"/>
<path d="M11.3203 28.4375H12.0312V33.9062H11.3203V28.4375Z" fill="#F5F5F5"/>
<path d="M14.2188 31.7188H33.9062V32.8125H14.2188V31.7188Z" fill="#83BF4F"/>
<path d="M13.125 32.8125H33.9062V33.9062H13.125V32.8125Z" fill="#DAE3EA"/>
<path d="M33.3594 31.6094C33.4687 31.4453 33.5234 31.2266 33.5234 30.9531C33.5234 30.2422 32.9766 29.6953 32.2656 29.6953H32.2109V29.5312C32.2109 29.2031 31.9375 28.875 31.5547 28.875C31.3906 28.875 31.2812 28.9297 31.1719 29.0391C31.1172 28.6016 30.6797 28.2734 30.2422 28.2734C29.6953 28.2734 29.3125 28.7109 29.3125 29.2578V29.4766C29.1484 29.3672 28.9297 29.2578 28.7109 29.2578C28.3281 29.2578 28 29.4766 27.8359 29.8047C27.7266 29.75 27.5625 29.75 27.3984 29.75C26.6875 29.75 26.1406 30.2969 26.1406 31.0078C26.1406 31.2813 26.25 31.5547 26.4141 31.7734C26.25 31.9375 26.1406 32.1562 26.1406 32.4297C26.1406 32.9766 26.5781 33.4141 27.0703 33.4141H32.1016C32.2656 33.5781 32.5391 33.6875 32.7578 33.6875C33.3594 33.6875 33.8516 33.1953 33.8516 32.5937C33.9062 32.1562 33.6875 31.8281 33.3594 31.6094Z" fill="#83BF4F"/>
<path d="M28.2734 32.5937C28.2734 32.9219 28.5469 32.4297 28.9297 32.4297C29.2578 32.4297 29.5859 32.9219 29.5859 32.5937C29.5859 32.2656 29.3125 31.9375 28.9297 31.9375C28.5469 31.9375 28.2734 32.2656 28.2734 32.5937Z" fill="#699635"/>
<path d="M30.1328 31.5C30.1328 31.6641 30.2969 31.5 30.4609 31.5C30.625 31.5 30.7891 31.6641 30.7891 31.5C30.7891 31.3359 30.625 31.1719 30.4609 31.1719C30.2969 31.1719 30.1328 31.2812 30.1328 31.5Z" fill="#699635"/>
<path d="M32.4844 32.6484C32.4844 32.8125 32.6484 32.6484 32.8125 32.6484C32.9766 32.6484 33.1406 32.8125 33.1406 32.6484C33.1406 32.4844 32.9766 32.3203 32.8125 32.3203C32.6484 32.375 32.4844 32.4844 32.4844 32.6484Z" fill="#699635"/>
<path d="M31.1172 30.625C31.1172 30.7891 31.2812 30.5703 31.4453 30.5703C31.6094 30.5703 31.7734 30.7891 31.7734 30.625C31.7734 30.4609 31.6094 30.2969 31.4453 30.2969C31.2812 30.2969 31.1172 30.4062 31.1172 30.625Z" fill="#B5F478"/>
<path d="M32.2109 31.5546C32.2109 31.7186 32.375 31.4999 32.5391 31.4999C32.7031 31.4999 32.8672 31.7186 32.8672 31.5546C32.8672 31.3905 32.7031 31.2264 32.5391 31.2264C32.3203 31.2264 32.2109 31.3358 32.2109 31.5546Z" fill="#B5F478"/>
<path d="M26.9062 30.9531C26.9062 31.3359 27.1797 30.7344 27.5625 30.7344C27.9453 30.7344 28.2187 31.2812 28.2187 30.9531C28.2187 30.625 27.9453 30.2969 27.5625 30.2969C27.1797 30.2969 26.9062 30.5703 26.9062 30.9531Z" fill="#699635"/>
<path d="M26.8516 32.4298C26.8516 32.5939 27.0156 32.4298 27.1797 32.4298C27.3438 32.4298 27.5078 32.5939 27.5078 32.4298C27.5078 32.2657 27.3438 32.1017 27.1797 32.1017C27.0156 32.1564 26.8516 32.2657 26.8516 32.4298Z" fill="#699635"/>
<path d="M29.6953 29.9141C29.6953 30.1328 29.8594 29.8047 30.1328 29.8047C30.3516 29.8047 30.5703 30.1875 30.5703 29.9141C30.5703 29.6953 30.4063 29.4766 30.1328 29.4766C29.9141 29.4766 29.6953 29.6406 29.6953 29.9141Z" fill="#B5F478"/>
<path d="M30.8984 32.7578C30.8984 32.9766 31.0625 32.6484 31.3359 32.6484C31.5547 32.6484 31.7734 33.0313 31.7734 32.7578C31.7734 32.5391 31.6094 32.3203 31.3359 32.3203C31.0625 32.3203 30.8984 32.4844 30.8984 32.7578Z" fill="#699635"/>
</svg>
