<svg width="34" height="34" viewBox="0 0 34 34" fill="none" xmlns="http://www.w3.org/2000/svg">
<path d="M32.9375 3.1875C32.9375 2.125 31.875 1.0625 30.8125 1.0625H3.1875C2.125 1.0625 1.0625 2.125 1.0625 3.1875V23.375H32.9375V3.1875Z" fill="#212528"/>
<path d="M1.0625 23.375V25.5C1.0625 26.5625 2.125 27.625 3.1875 27.625H30.8125C31.875 27.625 32.9375 26.5625 32.9375 25.5V23.375H1.0625Z" fill="#DDDDDD"/>
<path d="M12.75 28.6875C12.75 30.8125 10.625 30.8125 8.5 30.8125H25.5C23.375 30.8125 21.25 30.8125 21.25 28.6875V27.625H12.75V28.6875Z" fill="#BFBEBE"/>
<path d="M3.1875 3.1875H30.8125V21.25H3.1875V3.1875Z" fill="#3E4347"/>
<path d="M17 25.9785C17.2934 25.9785 17.5312 25.7407 17.5312 25.4473C17.5312 25.1539 17.2934 24.916 17 24.916C16.7066 24.916 16.4688 25.1539 16.4688 25.4473C16.4688 25.7407 16.7066 25.9785 17 25.9785Z" fill="#94989B"/>
<path d="M8.5 30.8125H25.5V32.9375H8.5V30.8125Z" fill="#94989B"/>
</svg>
