<svg width="109" height="27" viewBox="0 0 109 27" fill="none" xmlns="http://www.w3.org/2000/svg">
<path d="M102.815 13.1933H104.462V10.2254H106.634V13.1756H108.589V14.786H106.634V20.0345C106.634 20.2699 106.653 20.4509 106.671 20.6319C106.689 20.7945 106.743 20.9394 106.797 21.0483C106.87 21.1564 106.978 21.2469 107.105 21.3014C107.249 21.3558 107.43 21.3918 107.684 21.3918C107.829 21.3918 107.992 21.3918 108.137 21.3742C108.281 21.3558 108.444 21.3374 108.589 21.3014V22.9846C108.354 23.0207 108.119 23.0391 107.883 23.0567C107.648 23.0935 107.43 23.0935 107.177 23.0935C106.598 23.0935 106.146 23.0391 105.801 22.9302C105.458 22.822 105.186 22.6587 104.987 22.4601C104.788 22.2423 104.662 21.9892 104.59 21.6817C104.517 21.3742 104.481 20.9938 104.462 20.5958V14.8044H102.815V13.1572V13.1933ZM97.2048 21.5728C97.6756 21.5728 98.1097 21.4647 98.454 21.2653C98.816 21.0659 99.0874 20.7945 99.3229 20.4693C99.5576 20.1434 99.7209 19.763 99.829 19.365C99.9379 18.9486 99.9923 18.5322 99.9923 18.0981C99.9923 17.6817 99.9379 17.2653 99.829 16.8496C99.7209 16.4332 99.5576 16.0713 99.3229 15.7454C99.0874 15.4195 98.7983 15.1664 98.454 14.967C98.092 14.7684 97.6756 14.6595 97.2048 14.6595C96.7347 14.6595 96.2999 14.7684 95.9563 14.967C95.5944 15.1664 95.3229 15.4378 95.0882 15.7454C94.852 16.0713 94.6894 16.4332 94.5806 16.8496C94.4724 17.2653 94.418 17.6817 94.418 18.0981C94.418 18.5322 94.4724 18.9486 94.5806 19.365C94.6894 19.7814 94.852 20.1434 95.0882 20.4693C95.3229 20.7945 95.6127 21.0659 95.9563 21.2653C96.3183 21.4823 96.7347 21.5728 97.2048 21.5728ZM97.2048 23.2922C96.4271 23.2922 95.7216 23.1656 95.1058 22.8941C94.4901 22.6227 93.9839 22.2791 93.5498 21.8266C93.1327 21.3742 92.8075 20.8128 92.5898 20.1794C92.3734 19.546 92.2462 18.8404 92.2462 18.0981C92.2462 17.3558 92.3551 16.6687 92.5898 16.0352C92.8075 15.4018 93.1327 14.8588 93.5498 14.388C93.9655 13.9356 94.4901 13.5736 95.1058 13.3205C95.7216 13.0667 96.4271 12.9218 97.2048 12.9218C97.9839 12.9218 98.6894 13.049 99.3045 13.3205C99.9195 13.5736 100.427 13.9356 100.861 14.388C101.277 14.8405 101.604 15.4018 101.82 16.0352C102.038 16.6687 102.164 17.3558 102.164 18.0981C102.164 18.8581 102.056 19.546 101.82 20.1794C101.585 20.8128 101.277 21.3558 100.861 21.8266C100.445 22.2791 99.9195 22.641 99.3045 22.8941C98.6894 23.1472 98.0015 23.2922 97.2048 23.2922ZM88.4095 9.44708H90.5813V23.0207H88.4095V9.44708ZM84.3014 13.1933H86.4732V23.0207H84.3014V13.1933ZM84.3014 9.44708H86.4732V11.4923H84.3014V9.44708ZM80.4824 18.1165C80.4824 17.6817 80.4287 17.2477 80.3014 16.8313C80.1925 16.4149 80.0116 16.0529 79.7768 15.727C79.5414 15.4018 79.2523 15.148 78.9257 14.9493C78.5821 14.75 78.1841 14.6595 77.7493 14.6595C76.8444 14.6595 76.1572 14.967 75.6864 15.6004C75.2339 16.2339 74.9992 17.0844 74.9992 18.1342C74.9992 18.6411 75.0529 19.0935 75.1802 19.5099C75.306 19.9263 75.4693 20.2883 75.7231 20.5958C75.9578 20.9033 76.2477 21.1388 76.5913 21.3197C76.9349 21.5007 77.3152 21.5912 77.7677 21.5912C78.2746 21.5912 78.6726 21.4823 79.0162 21.2837C79.3604 21.0843 79.6319 20.8128 79.8673 20.5053C80.0844 20.1794 80.2477 19.8175 80.3382 19.4011C80.4287 18.967 80.4824 18.5506 80.4824 18.1165ZM72.8995 13.1933H74.9441V14.5329H74.9808C75.2884 13.9539 75.7048 13.5552 76.2477 13.3021C76.7906 13.049 77.3696 12.9218 78.0208 12.9218C78.7998 12.9218 79.4686 13.049 80.0483 13.3382C80.6273 13.6097 81.0974 13.9716 81.4778 14.4601C81.8581 14.931 82.148 15.4923 82.329 16.1257C82.5099 16.7592 82.6181 17.4463 82.6181 18.1526C82.6181 18.8221 82.5276 19.4555 82.3643 20.0705C82.1833 20.6863 81.9302 21.2469 81.5867 21.7178C81.2431 22.1886 80.8083 22.5682 80.2653 22.8581C79.7224 23.1472 79.1066 23.2922 78.3827 23.2922C78.0759 23.2922 77.7493 23.2561 77.4425 23.2017C77.1342 23.1472 76.8267 23.0567 76.5376 22.9302C76.2477 22.8036 75.9762 22.641 75.7408 22.4417C75.487 22.2423 75.2884 22.0076 75.125 21.7538H75.0897V26.6587H72.9179V13.1933H72.8995ZM65.6058 13.1933H67.2523V10.2254H69.4241V13.1756H71.3796V14.786H69.4241V20.0345C69.4241 20.2699 69.4425 20.4509 69.4609 20.6319C69.4793 20.7945 69.533 20.9394 69.5874 21.0483C69.6602 21.1564 69.7684 21.2469 69.895 21.3014C70.0399 21.3558 70.2209 21.3918 70.4747 21.3918C70.6189 21.3918 70.7815 21.3918 70.9271 21.3742C71.0713 21.3558 71.2339 21.3374 71.3796 21.3014V22.9846C71.1434 23.0207 70.9087 23.0391 70.6733 23.0567C70.4379 23.0935 70.2209 23.0935 69.9671 23.0935C69.3888 23.0935 68.9363 23.0391 68.592 22.9302C68.2477 22.822 67.9763 22.6587 67.7776 22.4601C67.579 22.2423 67.4517 21.9892 67.3796 21.6817C67.3075 21.3742 67.2707 20.9938 67.2523 20.5958V14.8044H65.6058V13.1572V13.1933ZM58.4571 19.8719C58.5299 20.5053 58.7646 20.9394 59.181 21.2109C59.5974 21.4647 60.1036 21.5912 60.6833 21.5912C60.8826 21.5912 61.1174 21.5728 61.3704 21.5368C61.6242 21.5007 61.878 21.4463 62.0944 21.3558C62.3305 21.2653 62.5115 21.1388 62.6557 20.9578C62.8006 20.7768 62.8734 20.5598 62.8551 20.2883C62.8367 20.0168 62.7462 19.7814 62.5468 19.6004C62.3482 19.4194 62.1128 19.2929 61.8229 19.1656C61.5337 19.0575 61.1895 18.967 60.8098 18.8942C60.4302 18.8221 60.0498 18.7316 59.6511 18.6411C59.2538 18.5506 58.8551 18.4417 58.4747 18.3152C58.0951 18.1886 57.7692 18.026 57.4617 17.7906C57.1725 17.5736 56.9187 17.3021 56.7554 16.9578C56.5744 16.6142 56.4839 16.2162 56.4839 15.7093C56.4839 15.1664 56.6112 14.7316 56.8827 14.3696C57.1358 14.0077 57.4793 13.7185 57.8781 13.5015C58.2761 13.2837 58.7285 13.1211 59.217 13.0307C59.7063 12.9402 60.1764 12.9041 60.6112 12.9041C61.1174 12.9041 61.6066 12.9585 62.059 13.0667C62.5115 13.1756 62.9455 13.3382 63.3075 13.592C63.6879 13.8267 63.9947 14.1526 64.2308 14.5329C64.4839 14.9126 64.6281 15.3834 64.7009 15.9264H62.4387C62.3305 15.4018 62.0944 15.0575 61.7324 14.8765C61.3528 14.6955 60.9364 14.605 60.4479 14.605C60.3029 14.605 60.1036 14.6234 59.9049 14.6411C59.6879 14.6779 59.5069 14.7139 59.3075 14.786C59.1266 14.8588 58.964 14.967 58.8367 15.0936C58.7109 15.2208 58.638 15.4018 58.638 15.6188C58.638 15.8903 58.7285 16.089 58.9095 16.2523C59.0905 16.4149 59.3259 16.5414 59.6334 16.6687C59.9226 16.7768 60.2669 16.8673 60.6465 16.9401C61.0269 17.0122 61.4256 17.1027 61.8229 17.1932C62.2216 17.2837 62.602 17.3926 62.9816 17.5191C63.3612 17.6457 63.7055 17.8083 63.9947 18.0437C64.2845 18.2607 64.5376 18.5322 64.7186 18.8581C64.8996 19.184 64.9901 19.6004 64.9901 20.0705C64.9901 20.6502 64.8642 21.1388 64.5928 21.5552C64.3213 21.9532 63.977 22.2968 63.5606 22.5506C63.1449 22.8036 62.6557 22.9846 62.1495 23.1112C61.6242 23.22 61.1174 23.2922 60.6112 23.2922C59.9954 23.2922 59.4164 23.22 58.8918 23.0751C58.3666 22.9302 57.8964 22.7132 57.5161 22.4417C57.1358 22.1518 56.8282 21.8082 56.6112 21.3742C56.3934 20.9578 56.2676 20.4509 56.2492 19.8535H58.4394V19.8719H58.4571ZM54.7646 23.0207H52.6296V21.6456H52.5928C52.3214 22.1518 51.9233 22.5322 51.3988 22.8397C50.8735 23.1472 50.3306 23.2922 49.7876 23.2922C48.5031 23.2922 47.5621 22.9846 46.9824 22.3328C46.4034 21.6994 46.1143 20.7224 46.1143 19.4371V13.1933H48.286V19.2201C48.286 20.0889 48.4486 20.704 48.7922 21.0483C49.1181 21.4102 49.589 21.5912 50.1863 21.5912C50.6388 21.5912 51.0184 21.5184 51.326 21.3742C51.6342 21.2292 51.8873 21.0483 52.0683 20.8128C52.2676 20.5774 52.3942 20.2883 52.4847 19.9624C52.5752 19.6365 52.6112 19.2745 52.6112 18.8942V13.1933H54.783V23.0207H54.7646ZM39.056 13.1933H41.0828V15.0936H41.1189C41.191 14.8221 41.3182 14.569 41.4992 14.3159C41.6802 14.0621 41.8972 13.8267 42.1687 13.628C42.4218 13.411 42.7117 13.2477 43.0376 13.1211C43.3451 12.9946 43.671 12.9218 43.9962 12.9218C44.25 12.9218 44.431 12.9402 44.5215 12.9402C44.612 12.9585 44.7201 12.9762 44.8106 12.9762V15.0575C44.6664 15.0214 44.5031 15.0031 44.3405 14.9854C44.1772 14.967 44.033 14.9493 43.8697 14.9493C43.5077 14.9493 43.1641 15.0214 42.8382 15.1664C42.5123 15.3113 42.2408 15.5283 41.9877 15.7998C41.7523 16.089 41.553 16.4332 41.4087 16.8496C41.2638 17.2653 41.191 17.7545 41.191 18.2975V22.9662H39.0192L39.056 13.1933ZM28.5407 9.44708H39.5261V11.4923H35.2009V23.0207H32.8298V11.4923H28.5223L28.5407 9.44708Z" fill="#95A5B0"/>
<path d="M26.0069 9.44708H16.0713L13.0123 0L9.93561 9.44708L0 9.42941L8.0353 15.2745L4.95862 24.7216L12.9946 18.8765L21.0299 24.7216L17.9716 15.2745L26.0069 9.44708Z" fill="#95A5B0"/>
<path d="M18.6595 17.4103L17.9716 15.2746L13.0123 18.8765L18.6595 17.4103Z" fill="white"/>
</svg>
