<svg width="36" height="36" viewBox="0 0 36 36" fill="none" xmlns="http://www.w3.org/2000/svg">
<path d="M9 22.5L5.625 18H3.375C2.13188 18 1.125 19.0069 1.125 20.25V32.625C1.125 33.8681 2.13188 34.875 3.375 34.875H5.625L9 30.375H14.625V22.5H9Z" fill="#595858"/>
<path d="M4.5 18H5.34375V34.875H4.5V18Z" fill="#3A3A3A"/>
<path d="M34.0622 20.6584L32.625 21.3756H28.125V24.7506H32.625L34.0622 25.4678C34.4363 25.6534 34.875 25.3834 34.875 24.9643V21.1618C34.875 20.7428 34.4363 20.47 34.0622 20.6584Z" fill="#595858"/>
<path d="M18 13.5H25.875V21.375H18V13.5Z" fill="#3F3F3F"/>
<path opacity="0.5" d="M8.85938 22.5H9.70312V30.375H8.85938V22.5Z" fill="#787676"/>
<path d="M11.4609 22.5H12.3047V30.375H11.4609V22.5Z" fill="#3A3A3A"/>
<path d="M13.5 19.125C18.4706 19.125 22.5 15.0956 22.5 10.125C22.5 5.15444 18.4706 1.125 13.5 1.125C8.52944 1.125 4.5 5.15444 4.5 10.125C4.5 15.0956 8.52944 19.125 13.5 19.125Z" fill="#504F4F"/>
<path d="M28.4062 19.125C31.8235 19.125 34.5938 16.3548 34.5938 12.9375C34.5938 9.52024 31.8235 6.75 28.4062 6.75C24.989 6.75 22.2188 9.52024 22.2188 12.9375C22.2188 16.3548 24.989 19.125 28.4062 19.125Z" fill="#504F4F"/>
<path d="M29.25 33.75H14.625C13.3819 33.75 12.375 32.7431 12.375 31.5V21.375C12.375 20.1319 13.3819 19.125 14.625 19.125H29.25C30.4931 19.125 31.5 20.1319 31.5 21.375V31.5C31.5 32.7431 30.4931 33.75 29.25 33.75Z" fill="#504F4F"/>
<path d="M15.1875 26.4375C15.4969 26.4375 15.75 26.6906 15.75 27C15.75 27.3094 15.4969 27.5625 15.1875 27.5625C14.8781 27.5625 14.625 27.3094 14.625 27C14.625 26.6906 14.8781 26.4375 15.1875 26.4375ZM15.1875 25.875C14.5659 25.875 14.0625 26.3784 14.0625 27C14.0625 27.6216 14.5659 28.125 15.1875 28.125C15.8091 28.125 16.3125 27.6216 16.3125 27C16.3125 26.3784 15.8091 25.875 15.1875 25.875Z" fill="#3A3A3A"/>
<path d="M15.1875 28.6875C15.4969 28.6875 15.75 28.9406 15.75 29.25C15.75 29.5594 15.4969 29.8125 15.1875 29.8125C14.8781 29.8125 14.625 29.5594 14.625 29.25C14.625 28.9406 14.8781 28.6875 15.1875 28.6875ZM15.1875 28.125C14.5659 28.125 14.0625 28.6284 14.0625 29.25C14.0625 29.8716 14.5659 30.375 15.1875 30.375C15.8091 30.375 16.3125 29.8716 16.3125 29.25C16.3125 28.6284 15.8091 28.125 15.1875 28.125Z" fill="#3A3A3A"/>
<path d="M18 30.0938C17.5359 30.0938 17.1562 29.7141 17.1562 29.25V27C17.1562 26.5359 17.5359 26.1562 18 26.1562H27C27.4641 26.1562 27.8438 26.5359 27.8438 27V29.25C27.8438 29.7141 27.4641 30.0938 27 30.0938H18Z" fill="#504F4F"/>
<path d="M27 26.5781C27.2334 26.5781 27.4219 26.7666 27.4219 27V29.25C27.4219 29.4834 27.2334 29.6719 27 29.6719H18C17.7666 29.6719 17.5781 29.4834 17.5781 29.25V27C17.5781 26.7666 17.7666 26.5781 18 26.5781H27ZM27 25.7344H18C17.3025 25.7344 16.7344 26.3025 16.7344 27V29.25C16.7344 29.9475 17.3025 30.5156 18 30.5156H27C27.6975 30.5156 28.2656 29.9475 28.2656 29.25V27C28.2656 26.3025 27.6975 25.7344 27 25.7344Z" fill="#3A3A3A"/>
<path d="M13.5 16.4531C16.9949 16.4531 19.8281 13.6199 19.8281 10.125C19.8281 6.63007 16.9949 3.79688 13.5 3.79688C10.0051 3.79688 7.17188 6.63007 7.17188 10.125C7.17188 13.6199 10.0051 16.4531 13.5 16.4531Z" fill="#504F4F"/>
<path d="M13.5 4.21875C16.7569 4.21875 19.4062 6.86812 19.4062 10.125C19.4062 13.3819 16.7569 16.0312 13.5 16.0312C10.2431 16.0312 7.59375 13.3819 7.59375 10.125C7.59375 6.86812 10.2431 4.21875 13.5 4.21875ZM13.5 3.375C9.77344 3.375 6.75 6.39844 6.75 10.125C6.75 13.8516 9.77344 16.875 13.5 16.875C17.2266 16.875 20.25 13.8516 20.25 10.125C20.25 6.39844 17.2266 3.375 13.5 3.375Z" fill="#3A3A3A"/>
<path d="M28.4062 16.4531C30.3479 16.4531 31.9219 14.8791 31.9219 12.9375C31.9219 10.9959 30.3479 9.42188 28.4062 9.42188C26.4646 9.42188 24.8906 10.9959 24.8906 12.9375C24.8906 14.8791 26.4646 16.4531 28.4062 16.4531Z" fill="#504F4F"/>
<path d="M28.4062 9.84375C30.1134 9.84375 31.5 11.2303 31.5 12.9375C31.5 14.6447 30.1134 16.0312 28.4062 16.0312C26.6991 16.0312 25.3125 14.6447 25.3125 12.9375C25.3125 11.2303 26.6991 9.84375 28.4062 9.84375ZM28.4062 9C26.2322 9 24.4688 10.7634 24.4688 12.9375C24.4688 15.1116 26.2322 16.875 28.4062 16.875C30.5803 16.875 32.3438 15.1116 32.3438 12.9375C32.3438 10.7634 30.5803 9 28.4062 9Z" fill="#3A3A3A"/>
<path d="M13.5 12.375C14.7426 12.375 15.75 11.3676 15.75 10.125C15.75 8.88236 14.7426 7.875 13.5 7.875C12.2574 7.875 11.25 8.88236 11.25 10.125C11.25 11.3676 12.2574 12.375 13.5 12.375Z" fill="#636262"/>
<path d="M28.4062 15.1875C29.6489 15.1875 30.6562 14.1801 30.6562 12.9375C30.6562 11.6949 29.6489 10.6875 28.4062 10.6875C27.1636 10.6875 26.1562 11.6949 26.1562 12.9375C26.1562 14.1801 27.1636 15.1875 28.4062 15.1875Z" fill="#636262"/>
<path d="M15.1875 27.5625C15.4982 27.5625 15.75 27.3107 15.75 27C15.75 26.6893 15.4982 26.4375 15.1875 26.4375C14.8768 26.4375 14.625 26.6893 14.625 27C14.625 27.3107 14.8768 27.5625 15.1875 27.5625Z" fill="url(#paint0_linear_8671_9665)"/>
<path d="M15.1875 29.8125C15.4982 29.8125 15.75 29.5607 15.75 29.25C15.75 28.9393 15.4982 28.6875 15.1875 28.6875C14.8768 28.6875 14.625 28.9393 14.625 29.25C14.625 29.5607 14.8768 29.8125 15.1875 29.8125Z" fill="url(#paint1_linear_8671_9665)"/>
<defs>
<linearGradient id="paint0_linear_8671_9665" x1="15.1875" y1="26.3672" x2="15.1875" y2="27.4972" gradientUnits="userSpaceOnUse">
<stop stop-color="#FF1744"/>
<stop offset="1" stop-color="#D50000"/>
</linearGradient>
<linearGradient id="paint1_linear_8671_9665" x1="15.1875" y1="28.6172" x2="15.1875" y2="29.7478" gradientUnits="userSpaceOnUse">
<stop stop-color="#76FF03"/>
<stop offset="1" stop-color="#64DD17"/>
</linearGradient>
</defs>
</svg>
