<svg xmlns="http://www.w3.org/2000/svg" xmlns:xlink="http://www.w3.org/1999/xlink" viewBox="0 0 508.24 191.12"><defs><style>.cls-1{fill:url(#Безымянный_градиент_24);}</style><linearGradient id="Безымянный_градиент_24" x1="456.09" y1="10.31" x2="360.54" y2="175.8" gradientUnits="userSpaceOnUse"><stop offset="0" stop-color="#55bcf4"/><stop offset="0.76" stop-color="#355ff1"/></linearGradient></defs><g id="Слой_2" data-name="Слой 2"><g id="О"><path id="О-2" data-name="О" d="M411.35.06c-51.46.72-93.45,42.7-94.17,94.16a95.52,95.52,0,0,0,95.52,96.9h1.1a16,16,0,0,0,15.8-16h0a16,16,0,0,0-16.18-16c-.84,0-1.68,0-2.53,0a63.58,63.58,0,1,1,65.36-65.36c0,.85,0,1.69,0,2.52a16,16,0,0,0,16,16.19h0a16,16,0,0,0,16-15.8c0-.37,0-.74,0-1.1A95.54,95.54,0,0,0,411.35.06Z"/></g><g id="З"><path id="З-2" data-name="З" d="M273.1,93.21c11.2-9.89,18.09-23.34,18.09-38.18,0-30.39-28.9-55-64.54-55C201,0,178.87,12.75,168.46,31.22A15.73,15.73,0,0,0,166.39,39a16.09,16.09,0,0,0,16.1,16A16.29,16.29,0,0,0,196.73,47c5-8.75,16.49-14.88,29.91-14.88,18,0,32.52,11,32.52,24.52s-14.55,24.54-32.52,24.54h-.4a14.48,14.48,0,1,0,0,28.95h4.16c20,0,36.3,11,36.3,24.5s-16.25,24.49-36.3,24.49c-15.17,0-28.16-6.28-33.58-15.2a16.34,16.34,0,0,0-5.87-5.7,16.12,16.12,0,0,0-21.55,22.64c11.24,17.95,34.35,30.25,61,30.25,37.72,0,68.3-24.61,68.3-55C298.72,118.75,288.71,103.29,273.1,93.21Z"/></g><g id="В"><path id="В-2" data-name="В" d="M122.91,92.44a53.91,53.91,0,0,0,16-38.37h0A54.05,54.05,0,0,0,84.85,0H14.38A14.38,14.38,0,0,0,0,14.39V176.7a14.38,14.38,0,0,0,14.38,14.38h78a54.05,54.05,0,0,0,54-54.05h0A54,54,0,0,0,122.91,92.44ZM35.08,32h48a23.76,23.76,0,0,1,23.76,23.76h0A23.77,23.77,0,0,1,83.11,79.54h-48a3.06,3.06,0,0,1-3-3.06V35.06A3,3,0,0,1,35.08,32Zm79.31,103.28a23.77,23.77,0,0,1-23.76,23.77H35.08A3.06,3.06,0,0,1,32,156V114.58a3.06,3.06,0,0,1,3-3H90.63a23.76,23.76,0,0,1,23.76,23.76Z"/></g><g id="ФЗ"><path id="Контур" class="cls-1" d="M411.35.06c-51.46.72-93.45,42.7-94.17,94.16a95.52,95.52,0,0,0,95.52,96.9h1.1a16,16,0,0,0,15.8-16h0a16,16,0,0,0-16.18-16c-.84,0-1.68,0-2.53,0a63.58,63.58,0,1,1,65.36-65.36c0,.85,0,1.69,0,2.52a16,16,0,0,0,16,16.19h0a16,16,0,0,0,16-15.8c0-.37,0-.74,0-1.1A95.54,95.54,0,0,0,411.35.06Z"/></g></g></svg>