<svg width="35" height="35" viewBox="0 0 35 35" fill="none" xmlns="http://www.w3.org/2000/svg">
<path d="M1.73828 2.98047H33.2629V24.1773H1.73828V2.98047Z" fill="url(#paint0_linear_8671_9591)"/>
<path d="M32.6184 3.62578V23.5348H2.38164V3.62578H32.6184ZM33.9062 2.33789H1.09375V24.8227H33.9062V2.33789Z" fill="url(#paint1_linear_8671_9591)"/>
<path d="M17.6567 0.785156C6.44299 0.785156 6.53323 11.1539 6.53323 11.318C6.53323 18.0336 7.04729 27.5191 9.73518 31.2516C10.8016 32.7309 12.8606 32.8129 12.8606 32.8129L17.5008 32.8074L22.141 32.8129C22.141 32.8129 24.2028 32.7309 25.2664 31.2516C27.9543 27.5191 28.4684 18.0336 28.4684 11.318C28.4656 11.1539 28.8703 0.785156 17.6567 0.785156Z" fill="#AB872F"/>
<path d="M17.6567 0.785156C6.44299 0.785156 6.53323 11.1539 6.53323 11.318C6.53323 18.0336 7.04729 27.5191 9.73518 31.2516C10.8016 32.7309 12.8606 32.8129 12.8606 32.8129L17.5008 32.8074L22.141 32.8129C22.141 32.8129 24.2028 32.7309 25.2664 31.2516C27.9543 27.5191 28.4684 18.0336 28.4684 11.318C28.4656 11.1539 28.8703 0.785156 17.6567 0.785156Z" fill="url(#paint2_radial_8671_9591)"/>
<path d="M31.3086 33.8898V33.0203C31.3086 28.7902 24.3797 26.5781 17.5383 26.5781H17.5C10.6258 26.5863 3.69141 28.5797 3.69141 33.0203V33.8898H31.3086Z" fill="url(#paint3_linear_8671_9591)"/>
<path d="M4.10156 33.8898V33.0203C4.10156 28.8641 10.8309 26.9965 17.5 26.9883H17.5355C21.0629 26.9883 24.4863 27.5871 26.9309 28.6289C28.741 29.4027 30.8984 30.7918 30.8984 33.0176V33.8871H31.7188V33.0176C31.7188 28.4375 24.5383 26.168 17.5355 26.168H17.5C10.5301 26.1762 3.28125 28.1586 3.28125 33.0203V33.8898H4.10156Z" fill="#3488C1"/>
<path d="M3.28125 33.018V33.8875H12.1953C12.4086 27.932 13.3383 26.2285 13.3383 26.2285C8.70352 27.2402 3.48633 28.4379 3.28125 33.018Z" fill="url(#paint4_linear_8671_9591)"/>
<path d="M21.7676 26.2305C21.7676 26.2305 22.6945 27.934 22.9105 33.8895H31.8246V33.0199C31.6195 28.4371 26.4023 27.2395 21.7676 26.2305Z" fill="url(#paint5_linear_8671_9591)"/>
<path d="M10.5145 33.8902C10.5227 32.5395 10.673 29.723 11.641 26.5977L10.7168 26.8219C9.83633 29.8789 9.69414 32.5531 9.69141 33.8902H10.5145Z" fill="url(#paint6_linear_8671_9591)"/>
<path d="M25.309 33.8902C25.3062 32.5531 25.1641 29.8789 24.2836 26.8219L23.3594 26.5977C24.3273 29.723 24.4777 32.5395 24.4859 33.8902H25.309Z" fill="url(#paint7_linear_8671_9591)"/>
<path d="M17.5004 25.2461H15.0176V27.975C15.0176 29.2082 16.0293 30.209 17.2762 30.209H17.7273C18.9742 30.209 19.9859 29.2082 19.9859 27.975V25.2461H17.5004Z" fill="#C48E6A"/>
<path d="M14.7664 25.123L17.4953 28.6258C17.4953 28.6258 17.632 28.5219 17.4953 28.6258L13.0574 30.4414L12.3984 26.4656L14.7664 25.123Z" fill="url(#paint8_linear_8671_9591)"/>
<path d="M20.2916 25.123L17.5627 28.6258C17.5627 28.6258 17.426 28.5219 17.5627 28.6258L22.0006 30.4414L22.6596 26.4656L20.2916 25.123Z" fill="url(#paint9_linear_8671_9591)"/>
<path d="M27.6148 33.8896L27.8227 33.165L27.9949 32.5689L27.9785 32.5635L27.9812 32.5498L27.5574 32.4295L28.0059 30.8654C28.0332 30.7697 28.0305 30.674 28.0059 30.5865C28.0059 30.5838 28.0031 30.5783 28.0031 30.5756C28.0012 30.5659 27.9975 30.5566 27.9922 30.5482C27.9457 30.4006 27.8391 30.283 27.6941 30.2392L27.6531 30.2283H27.6504L26.625 29.933L17.0738 27.185C17.0602 27.1822 17.0492 27.1822 17.0383 27.1767C16.6113 27.0643 16.1573 27.1236 15.7735 27.3418C15.3896 27.5601 15.1065 27.9199 14.9848 28.3443L14.591 29.7197C14.5637 29.8127 14.5336 29.9139 14.5008 30.0232L14.1398 31.2838L13.3906 33.8896H27.6148Z" fill="url(#paint10_linear_8671_9591)"/>
<path d="M27.9711 33.8894L28.9172 30.5918C28.9965 30.3156 28.8379 30.0285 28.5617 29.9519L17.9824 26.9168C17.5513 26.7935 17.0889 26.8464 16.6967 27.0637C16.3045 27.2811 16.0146 27.6452 15.8906 28.0761L14.2227 33.8921L27.9711 33.8894Z" fill="#424242"/>
<path d="M28.4488 33.8896L28.7332 32.8971C28.8289 32.5635 28.6293 32.2135 28.2902 32.1178L16.9371 28.8639C15.6984 28.5084 15.4824 29.5064 15.1352 30.7178L14.2246 33.8896H28.4488Z" fill="url(#paint11_linear_8671_9591)"/>
<path opacity="0.2" d="M17.5903 27.7738C17.6395 27.7738 17.6942 27.7793 17.7516 27.793L27.9372 30.7187L27.8524 31.0141C24.6286 30.1145 18.4762 28.3836 17.2048 27.9625C17.2704 27.8723 17.3989 27.7738 17.5903 27.7738ZM17.5903 26.8633C16.3544 26.8633 15.7364 28.3863 16.7372 28.7609C17.8391 29.1711 28.4758 32.1297 28.4758 32.1297L28.9079 30.6203C28.9926 30.3305 28.8559 30.0352 28.6044 29.9641L17.984 26.9125C17.8473 26.8797 17.7161 26.8633 17.5903 26.8633Z" fill="#424242"/>
<path d="M28.2656 30.657L17.3828 27.5344C17.0875 27.4496 16.7648 27.6602 16.6664 28.002L16.65 28.0621C16.5516 28.4039 16.7129 28.7539 17.0082 28.8387L27.891 31.9613C27.891 31.9613 27.798 31.7344 27.9101 31.3324C28.0223 30.9277 28.2656 30.657 28.2656 30.657Z" fill="url(#paint12_linear_8671_9591)"/>
<path d="M15.2801 33.8898L17.3992 26.5098L15.641 26.0039L13.377 33.8898H15.2801Z" fill="url(#paint13_linear_8671_9591)"/>
<path d="M17.5844 4.38672C12.8812 4.38672 8.52539 7.88398 8.52539 15.2996C8.52539 21.2551 12.2141 24.7797 15.4242 25.9172C16.1898 26.1879 16.9281 26.3246 17.5844 26.3246C18.2352 26.3246 18.9707 26.1906 19.7309 25.9227C22.9465 24.7906 26.6434 21.266 26.6434 15.3023C26.6434 7.88398 22.2875 4.38672 17.5844 4.38672Z" fill="#E7CBAE"/>
<path d="M18.6946 18.6117C18.6645 18.6008 18.6372 18.5926 18.6071 18.5898H16.6958C16.6657 18.5926 16.6384 18.6008 16.6083 18.6117C16.436 18.6828 16.3403 18.8605 16.4224 19.052C16.5044 19.2434 16.8845 19.7793 17.6501 19.7793C18.4157 19.7793 18.7958 19.2434 18.8806 19.052C18.9626 18.8605 18.8669 18.6801 18.6946 18.6117Z" fill="#C48E6A"/>
<path d="M13.482 17.477C14.2175 17.477 14.8137 16.8599 14.8137 16.0988C14.8137 15.3377 14.2175 14.7207 13.482 14.7207C12.7466 14.7207 12.1504 15.3377 12.1504 16.0988C12.1504 16.8599 12.7466 17.477 13.482 17.477Z" fill="#5D4037"/>
<path d="M21.8199 17.477C22.5554 17.477 23.1516 16.8599 23.1516 16.0988C23.1516 15.3377 22.5554 14.7207 21.8199 14.7207C21.0845 14.7207 20.4883 15.3377 20.4883 16.0988C20.4883 16.8599 21.0845 17.477 21.8199 17.477Z" fill="#5D4037"/>
<path d="M15.1869 13.6238C14.9326 13.2875 14.3474 12.8008 13.2099 12.8008C12.0724 12.8008 11.4845 13.2902 11.2329 13.6238C11.1208 13.7715 11.1482 13.9437 11.2275 14.0477C11.2986 14.1434 11.5119 14.2336 11.747 14.1543C11.9822 14.075 12.4415 13.8371 13.2099 13.8316C13.9783 13.8371 14.4376 14.075 14.6728 14.1543C14.9079 14.2336 15.1212 14.1461 15.1923 14.0477C15.2716 13.9437 15.299 13.7715 15.1869 13.6238Z" fill="#AB872F"/>
<path d="M24.0736 13.6238C23.8193 13.2875 23.2341 12.8008 22.0966 12.8008C20.9591 12.8008 20.3712 13.2902 20.1197 13.6238C20.0076 13.7715 20.0349 13.9437 20.1142 14.0477C20.1853 14.1434 20.3986 14.2336 20.6337 14.1543C20.8689 14.075 21.3283 13.8371 22.0966 13.8316C22.865 13.8371 23.3244 14.075 23.5595 14.1543C23.7947 14.2336 24.0079 14.1461 24.079 14.0477C24.1556 13.9437 24.1829 13.7715 24.0736 13.6238Z" fill="#AB872F"/>
<path d="M19.8564 20.8211C18.995 21.3324 16.1732 21.3324 15.3146 20.8211C14.8197 20.5285 14.3165 20.9769 14.5216 21.4254C14.7239 21.8656 16.2634 22.891 17.5923 22.891C18.9212 22.891 20.4415 21.8656 20.6439 21.4254C20.8489 20.9769 20.3513 20.5258 19.8564 20.8211Z" fill="#6D4C41"/>
<path d="M25.6832 14.4737C25.664 14.1483 25.6504 14.1154 25.2211 13.9787C24.8847 13.8721 23.0472 13.7217 21.6636 13.7983C21.5652 13.8037 21.4695 13.8092 21.3793 13.8174C20.1242 13.924 18.6175 14.4299 17.4855 14.4572C17.0043 14.4682 15.0218 13.9487 13.6191 13.8393C13.5289 13.8338 13.4386 13.8256 13.3457 13.8229C11.9593 13.7518 10.1136 13.9131 9.77731 14.0225C9.34802 14.1619 9.33434 14.1947 9.31794 14.5201C9.2988 14.8428 9.35348 15.1217 9.60778 15.2065C9.95505 15.3213 9.95778 15.7533 10.1902 16.9947C10.4008 18.1268 10.9066 19.0209 13.0804 19.1768C13.1734 19.1822 13.2609 19.1877 13.3484 19.1877C15.2707 19.2151 15.9324 17.949 16.1511 17.5279C16.5586 16.7459 16.43 15.6686 17.5074 15.6658C18.582 15.6631 18.4808 16.7213 18.8937 17.5006C19.1152 17.919 19.7605 19.1905 21.6664 19.1631C21.7593 19.1631 21.855 19.1576 21.9535 19.1494C24.1246 18.9799 24.6277 18.083 24.83 16.951C25.0543 15.7069 25.057 15.2721 25.4015 15.1572C25.6504 15.0752 25.7023 14.799 25.6832 14.4737ZM14.5925 18.6408C14.259 18.7967 13.8133 18.876 13.3429 18.876C12.3613 18.8733 11.273 18.5287 10.8793 17.8342C10.3215 16.8444 10.1765 14.8428 10.8875 14.4244C11.1992 14.2412 12.2519 14.1155 13.3402 14.1619C14.4695 14.2112 15.6371 14.4463 16.0582 14.9987C16.7582 15.9092 15.648 18.1432 14.5925 18.6408ZM24.1355 17.7932C23.7445 18.4932 22.648 18.8459 21.6609 18.8487C21.1961 18.8514 20.7558 18.7748 20.4277 18.6217C19.3695 18.1295 18.2484 15.9037 18.9375 14.9877C19.3558 14.4299 20.5289 14.1893 21.6609 14.1346C22.7465 14.0826 23.7965 14.2029 24.1054 14.3834C24.8218 14.799 24.6879 16.8006 24.1355 17.7932Z" fill="#212121" stroke="#212121" stroke-width="0.150391" stroke-miterlimit="10"/>
<path d="M17.6567 0.785156C6.44299 0.785156 6.53323 11.1539 6.53323 11.318C6.53323 13.4398 6.58518 15.8379 6.7383 18.2414L8.5758 18.2359C8.5594 17.4375 9.11994 12.502 10.7852 12.1273C16.8992 10.752 20.3582 7.50898 20.3582 7.50898C21.2578 9.47227 24.0715 11.3891 25.0805 12.1191C25.909 12.718 26.3328 17.1914 26.3164 18.2387H28.2551C28.2551 18.225 28.2606 18.2113 28.2606 18.1949C28.4137 15.8023 28.4629 13.4207 28.4629 11.3125C28.4656 11.1539 28.8703 0.785156 17.6567 0.785156Z" fill="#AB872F"/>
<path d="M17.6567 0.785156C6.44299 0.785156 6.53323 11.1539 6.53323 11.318C6.53323 13.4398 6.58518 15.8379 6.7383 18.2414L8.5758 18.2359C8.5594 17.4375 9.11994 12.502 10.7852 12.1273C16.8992 10.752 20.3582 7.50898 20.3582 7.50898C21.2578 9.47227 24.0715 11.3891 25.0805 12.1191C25.909 12.718 26.3328 17.1914 26.3164 18.2387H28.2551C28.2551 18.225 28.2606 18.2113 28.2606 18.1949C28.4137 15.8023 28.4629 13.4207 28.4629 11.3125C28.4656 11.1539 28.8703 0.785156 17.6567 0.785156Z" fill="url(#paint14_radial_8671_9591)"/>
<defs>
<linearGradient id="paint0_linear_8671_9591" x1="17.4989" y1="3.11582" x2="17.4989" y2="24.1962" gradientUnits="userSpaceOnUse">
<stop stop-color="#4FABFA"/>
<stop offset="1" stop-color="#355FF1"/>
</linearGradient>
<linearGradient id="paint1_linear_8671_9591" x1="17.4997" y1="2.33652" x2="17.4997" y2="24.8216" gradientUnits="userSpaceOnUse">
<stop/>
<stop offset="0.779" stop-color="#222735"/>
</linearGradient>
<radialGradient id="paint2_radial_8671_9591" cx="0" cy="0" r="1" gradientUnits="userSpaceOnUse" gradientTransform="translate(17.5008 15.9791) scale(12.997 15.4678)">
<stop offset="0.794" stop-color="#BFA055" stop-opacity="0"/>
<stop offset="1" stop-color="#BFA055"/>
</radialGradient>
<linearGradient id="paint3_linear_8671_9591" x1="17.5" y1="29.9843" x2="17.5" y2="33.6738" gradientUnits="userSpaceOnUse">
<stop stop-color="white"/>
<stop offset="1" stop-color="#C5DCEF"/>
</linearGradient>
<linearGradient id="paint4_linear_8671_9591" x1="8.30977" y1="26.1692" x2="8.30977" y2="33.6357" gradientUnits="userSpaceOnUse">
<stop stop-color="#2CDD88"/>
<stop offset="0.705" stop-color="#00BFA5"/>
<stop offset="1" stop-color="#72F3AD"/>
</linearGradient>
<linearGradient id="paint5_linear_8671_9591" x1="26.7961" y1="26.5247" x2="26.7961" y2="33.6234" gradientUnits="userSpaceOnUse">
<stop stop-color="#00BFA5"/>
<stop offset="0.705" stop-color="#00BFA5"/>
<stop offset="1" stop-color="#2CDD88"/>
</linearGradient>
<linearGradient id="paint6_linear_8671_9591" x1="10.6651" y1="27.0707" x2="10.6651" y2="33.5178" gradientUnits="userSpaceOnUse">
<stop stop-color="#D1C4E9" stop-opacity="0.2"/>
<stop offset="0.785" stop-color="#D1C4E9" stop-opacity="0.6"/>
</linearGradient>
<linearGradient id="paint7_linear_8671_9591" x1="24.3353" y1="26.7325" x2="24.3353" y2="33.4659" gradientUnits="userSpaceOnUse">
<stop stop-color="#D1C4E9" stop-opacity="0.2"/>
<stop offset="0.785" stop-color="#D1C4E9" stop-opacity="0.6"/>
</linearGradient>
<linearGradient id="paint8_linear_8671_9591" x1="14.8591" y1="30.3854" x2="15.088" y2="24.8403" gradientUnits="userSpaceOnUse">
<stop stop-color="#E1F5FE"/>
<stop offset="1" stop-color="#81D4FA"/>
</linearGradient>
<linearGradient id="paint9_linear_8671_9591" x1="19.9526" y1="30.5956" x2="20.1814" y2="25.0506" gradientUnits="userSpaceOnUse">
<stop stop-color="#E1F5FE"/>
<stop offset="1" stop-color="#81D4FA"/>
</linearGradient>
<linearGradient id="paint10_linear_8671_9591" x1="21.643" y1="29.2256" x2="19.9113" y2="36.5174" gradientUnits="userSpaceOnUse">
<stop offset="0.002" stop-color="#212121" stop-opacity="0.2"/>
<stop offset="1" stop-color="#212121" stop-opacity="0.6"/>
</linearGradient>
<linearGradient id="paint11_linear_8671_9591" x1="22.3916" y1="30.2805" x2="20.9788" y2="35.02" gradientUnits="userSpaceOnUse">
<stop stop-color="#EF5350"/>
<stop offset="1" stop-color="#E53935"/>
</linearGradient>
<linearGradient id="paint12_linear_8671_9591" x1="16.6592" y1="28.0313" x2="28.0776" y2="31.3081" gradientUnits="userSpaceOnUse">
<stop offset="0.01" stop-color="#BDBDBD"/>
<stop offset="0.987" stop-color="#F5F5F5"/>
</linearGradient>
<linearGradient id="paint13_linear_8671_9591" x1="14.3709" y1="33.372" x2="15.5672" y2="29.6122" gradientUnits="userSpaceOnUse">
<stop stop-color="#212121"/>
<stop offset="1" stop-color="#424242"/>
</linearGradient>
<radialGradient id="paint14_radial_8671_9591" cx="0" cy="0" r="1" gradientUnits="userSpaceOnUse" gradientTransform="translate(17.5919 17.0809) scale(13.6139 16.5205)">
<stop offset="0.794" stop-color="#BFA055" stop-opacity="0"/>
<stop offset="1" stop-color="#BFA055"/>
</radialGradient>
</defs>
</svg>
