<svg width="92" height="16" viewBox="0 0 92 16" fill="none" xmlns="http://www.w3.org/2000/svg">
<path d="M15.1554 6.1827L15.156 6.18275C15.1788 6.1849 15.2221 6.20426 15.2419 6.26816L15.9583 6.04621L15.2421 6.26896C15.2632 6.33677 15.2398 6.40218 15.2032 6.4356L15.2026 6.43614L11.7119 9.63L11.3936 9.92122L11.4853 10.3428L12.5146 15.0737C12.5302 15.1456 12.4999 15.2058 12.4644 15.2326L12.4643 15.2327C12.4476 15.2454 12.4327 15.2492 12.4211 15.2498C12.4096 15.2503 12.3962 15.2478 12.3809 15.2382L12.3791 15.2371L8.39706 12.7527L8.00014 12.5051L7.60318 12.7527L3.61969 15.237L3.61935 15.2372C3.61016 15.2429 3.60257 15.246 3.59681 15.2476C3.59102 15.2493 3.58573 15.25 3.58065 15.25C3.5745 15.25 3.56797 15.249 3.56088 15.2467C3.55391 15.2443 3.54484 15.24 3.53424 15.2321C3.50003 15.2063 3.46911 15.1468 3.48486 15.0736C3.48488 15.0736 3.48489 15.0735 3.48491 15.0734L4.51407 10.3428L4.60577 9.92127L4.28755 9.63005L0.796871 6.43555L0.795468 6.43428C0.760782 6.40269 0.736594 6.33774 0.757909 6.26934C0.778068 6.20464 0.821335 6.18501 0.844949 6.18261C0.845041 6.1826 0.845133 6.18259 0.845225 6.18258L5.46271 5.74514L5.91418 5.70237L6.08603 5.28271L7.91177 0.824304C7.91181 0.824191 7.91186 0.824078 7.9119 0.823965C7.93713 0.762929 7.97937 0.75 8.00006 0.75C8.02104 0.75 8.06331 0.763249 8.08838 0.823575C8.08845 0.823752 8.08853 0.823931 8.0886 0.824109L9.91408 5.28267L10.0859 5.70236L10.5374 5.74514L15.1554 6.1827Z" stroke="#FFF27B" stroke-width="1.5"/>
<line x1="7.5" y1="2" x2="7.5" y2="12" stroke="#FFF27B"/>
<line x1="7.4932" y1="2.0822" x2="6.4932" y2="8.0822" stroke="#FFF27B"/>
<line x1="7" y1="6.5" x2="3" y2="6.5" stroke="#FFF27B"/>
<line x1="5.64645" y1="9.35355" x2="2.64645" y2="6.35355" stroke="#FFF27B"/>
<line x1="4.50971" y1="13.9019" x2="5.50971" y2="8.90194" stroke="#FFF27B"/>
<line x1="4.72265" y1="13.584" x2="7.72265" y2="11.584" stroke="#FFF27B"/>
<path d="M3.32463 7.02547L6.90274 6.82164L5.83979 9.57858L3.32463 7.02547Z" fill="#FFF27B"/>
<rect x="6" y="8" width="1" height="4" fill="#FFF27B"/>
<line x1="6.48507" y1="9.12127" x2="5.48507" y2="13.1213" stroke="#FFF27B"/>
<path d="M53.1554 6.1827L53.156 6.18275C53.1788 6.1849 53.2221 6.20426 53.2419 6.26816L53.9583 6.04621L53.2421 6.26896C53.2632 6.33677 53.2398 6.40218 53.2032 6.4356L53.2026 6.43614L49.7119 9.63L49.3936 9.92122L49.4853 10.3428L50.5146 15.0737C50.5302 15.1456 50.4999 15.2058 50.4644 15.2326L50.4643 15.2327C50.4476 15.2454 50.4327 15.2492 50.4211 15.2498C50.4096 15.2503 50.3962 15.2478 50.3809 15.2382L50.3791 15.2371L46.3971 12.7527L46.0001 12.5051L45.6032 12.7527L41.6197 15.237L41.6194 15.2372C41.6102 15.2429 41.6026 15.246 41.5968 15.2476C41.591 15.2493 41.5857 15.25 41.5806 15.25C41.5745 15.25 41.568 15.249 41.5609 15.2467C41.5539 15.2443 41.5448 15.24 41.5342 15.2321C41.5 15.2063 41.4691 15.1468 41.4849 15.0736C41.4849 15.0736 41.4849 15.0735 41.4849 15.0734L42.5141 10.3428L42.6058 9.92127L42.2876 9.63005L38.7969 6.43555L38.7955 6.43428C38.7608 6.40269 38.7366 6.33774 38.7579 6.26934C38.7781 6.20464 38.8213 6.18501 38.8449 6.18261C38.845 6.1826 38.8451 6.18259 38.8452 6.18258L43.4627 5.74514L43.9142 5.70237L44.086 5.28271L45.9118 0.824304C45.9118 0.824191 45.9119 0.824078 45.9119 0.823965C45.9371 0.762929 45.9794 0.75 46.0001 0.75C46.021 0.75 46.0633 0.763249 46.0884 0.823575C46.0885 0.823752 46.0885 0.823931 46.0886 0.824109L47.9141 5.28267L48.0859 5.70236L48.5374 5.74514L53.1554 6.1827Z" stroke="#FFF27B" stroke-width="1.5"/>
<path d="M34.1554 6.1827L34.156 6.18275C34.1788 6.1849 34.2221 6.20426 34.2419 6.26816L34.9583 6.04621L34.2421 6.26896C34.2632 6.33677 34.2398 6.40218 34.2032 6.4356L34.2026 6.43614L30.7119 9.63L30.3936 9.92122L30.4853 10.3428L31.5146 15.0737C31.5302 15.1456 31.4999 15.2058 31.4644 15.2326L31.4643 15.2327C31.4476 15.2454 31.4327 15.2492 31.4211 15.2498C31.4096 15.2503 31.3962 15.2478 31.3809 15.2382L31.3791 15.2371L27.3971 12.7527L27.0001 12.5051L26.6032 12.7527L22.6197 15.237L22.6194 15.2372C22.6102 15.2429 22.6026 15.246 22.5968 15.2476C22.591 15.2493 22.5857 15.25 22.5806 15.25C22.5745 15.25 22.568 15.249 22.5609 15.2467C22.5539 15.2443 22.5448 15.24 22.5342 15.2321C22.5 15.2063 22.4691 15.1468 22.4849 15.0736C22.4849 15.0736 22.4849 15.0735 22.4849 15.0734L23.5141 10.3428L23.6058 9.92127L23.2876 9.63005L19.7969 6.43555L19.7955 6.43428C19.7608 6.40269 19.7366 6.33774 19.7579 6.26934C19.7781 6.20464 19.8213 6.18501 19.8449 6.18261C19.845 6.1826 19.8451 6.18259 19.8452 6.18258L24.4627 5.74514L24.9142 5.70237L25.086 5.28271L26.9118 0.824304C26.9118 0.824191 26.9119 0.824078 26.9119 0.823965C26.9371 0.762929 26.9794 0.75 27.0001 0.75C27.021 0.75 27.0633 0.763249 27.0884 0.823575C27.0885 0.823752 27.0885 0.823931 27.0886 0.824109L28.9141 5.28267L29.0859 5.70236L29.5374 5.74514L34.1554 6.1827Z" stroke="#FFF27B" stroke-width="1.5"/>
<path d="M91.1554 6.1827L91.156 6.18275C91.1788 6.1849 91.2221 6.20426 91.2419 6.26816L91.9583 6.04621L91.2421 6.26896C91.2632 6.33677 91.2398 6.40218 91.2032 6.4356L91.2026 6.43614L87.7119 9.63L87.3936 9.92122L87.4853 10.3428L88.5146 15.0737C88.5302 15.1456 88.4999 15.2058 88.4644 15.2326L88.4643 15.2327C88.4476 15.2454 88.4327 15.2492 88.4211 15.2498C88.4096 15.2503 88.3962 15.2478 88.3809 15.2382L88.3791 15.2371L84.3971 12.7527L84.0001 12.5051L83.6032 12.7527L79.6197 15.237L79.6194 15.2372C79.6102 15.2429 79.6026 15.246 79.5968 15.2476C79.591 15.2493 79.5857 15.25 79.5806 15.25C79.5745 15.25 79.568 15.249 79.5609 15.2467C79.5539 15.2443 79.5448 15.24 79.5342 15.2321C79.5 15.2063 79.4691 15.1468 79.4849 15.0736C79.4849 15.0736 79.4849 15.0735 79.4849 15.0734L80.5141 10.3428L80.6058 9.92127L80.2876 9.63005L76.7969 6.43555L76.7955 6.43428C76.7608 6.40269 76.7366 6.33774 76.7579 6.26934C76.7781 6.20464 76.8213 6.18501 76.8449 6.18261C76.845 6.1826 76.8451 6.18259 76.8452 6.18258L81.4627 5.74514L81.9142 5.70237L82.086 5.28271L83.9118 0.824304C83.9118 0.824191 83.9119 0.824078 83.9119 0.823965C83.9371 0.762929 83.9794 0.75 84.0001 0.75C84.021 0.75 84.0633 0.763249 84.0884 0.823575C84.0885 0.823752 84.0885 0.823931 84.0886 0.824109L85.9141 5.28267L86.0859 5.70236L86.5374 5.74514L91.1554 6.1827Z" stroke="#FFF27B" stroke-width="1.5"/>
<path d="M72.1554 6.1827L72.156 6.18275C72.1788 6.1849 72.2221 6.20426 72.2419 6.26816L72.9583 6.04621L72.2421 6.26896C72.2632 6.33677 72.2398 6.40218 72.2032 6.4356L72.2026 6.43614L68.7119 9.63L68.3936 9.92122L68.4853 10.3428L69.5146 15.0737C69.5302 15.1456 69.4999 15.2058 69.4644 15.2326L69.4643 15.2327C69.4476 15.2454 69.4327 15.2492 69.4211 15.2498C69.4096 15.2503 69.3962 15.2478 69.3809 15.2382L69.3791 15.2371L65.3971 12.7527L65.0001 12.5051L64.6032 12.7527L60.6197 15.237L60.6194 15.2372C60.6102 15.2429 60.6026 15.246 60.5968 15.2476C60.591 15.2493 60.5857 15.25 60.5806 15.25C60.5745 15.25 60.568 15.249 60.5609 15.2467C60.5539 15.2443 60.5448 15.24 60.5342 15.2321C60.5 15.2063 60.4691 15.1468 60.4849 15.0736C60.4849 15.0736 60.4849 15.0735 60.4849 15.0734L61.5141 10.3428L61.6058 9.92127L61.2876 9.63005L57.7969 6.43555L57.7955 6.43428C57.7608 6.40269 57.7366 6.33774 57.7579 6.26934C57.7781 6.20464 57.8213 6.18501 57.8449 6.18261C57.845 6.1826 57.8451 6.18259 57.8452 6.18258L62.4627 5.74514L62.9142 5.70237L63.086 5.28271L64.9118 0.824304C64.9118 0.824191 64.9119 0.824078 64.9119 0.823965C64.9371 0.762929 64.9794 0.75 65.0001 0.75C65.021 0.75 65.0633 0.763249 65.0884 0.823575C65.0885 0.823752 65.0885 0.823931 65.0886 0.824109L66.9141 5.28267L67.0859 5.70236L67.5374 5.74514L72.1554 6.1827Z" stroke="#FFF27B" stroke-width="1.5"/>
</svg>
