<svg width="92" height="15" viewBox="0 0 92 15" fill="none" xmlns="http://www.w3.org/2000/svg">
<path d="M7.53986 9.51325e-07C7.38585 -0.00023651 7.23505 0.0439854 7.10556 0.127357C6.97607 0.210728 6.87339 0.329705 6.80986 0.470001L5.08986 4.37L0.759863 4.76C0.600362 4.76528 0.4462 4.81875 0.317677 4.91335C0.189155 5.00796 0.0922985 5.13927 0.039863 5.29C-0.00887392 5.43552 -0.0130178 5.59228 0.0279633 5.74017C0.0689444 5.88805 0.153181 6.02032 0.269863 6.12L3.57986 8.91L2.57986 13.05C2.54495 13.1991 2.55587 13.3552 2.61118 13.4979C2.66649 13.6407 2.76363 13.7634 2.88986 13.85C3.02682 13.9483 3.19131 14.0008 3.35986 14C3.50352 13.9978 3.64438 13.96 3.76986 13.89L7.53986 11.72V9.51325e-07Z" fill="#FFDC23"/>
<path d="M7.54004 11.72L11.27 13.89C11.4016 13.9736 11.5542 14.018 11.71 14.018C11.8659 14.018 12.0185 13.9736 12.15 13.89C12.2763 13.8034 12.3734 13.6807 12.4287 13.5379C12.484 13.3952 12.495 13.2391 12.46 13.09L11.46 8.95L14.74 6.16C14.877 6.06662 14.9803 5.9315 15.0343 5.77475C15.0884 5.618 15.0904 5.44799 15.04 5.29V5.29C14.9907 5.14311 14.8987 5.01425 14.7758 4.91986C14.6529 4.82546 14.5047 4.76981 14.35 4.76L10.04 4.37L8.27004 0.470001C8.20651 0.329705 8.10384 0.210728 7.97434 0.127357C7.84485 0.0439854 7.69405 -0.00023651 7.54004 9.51325e-07V11.72Z" fill="#E5E5E5"/>
<path d="M34.037 5.29043C33.9388 4.99462 33.6694 4.78452 33.3507 4.75654L29.0213 4.37368L27.3094 0.47114C27.1831 0.185134 26.8956 0 26.5762 0C26.2568 0 25.9693 0.185134 25.8431 0.471809L24.1311 4.37368L19.8011 4.75654C19.4829 4.78519 19.2142 4.99462 19.1154 5.29043C19.0167 5.58625 19.1079 5.9107 19.3485 6.11523L22.6211 8.91042L21.6561 13.0504C21.5855 13.3548 21.7068 13.6694 21.9661 13.852C22.1055 13.9501 22.2686 14 22.433 14C22.5748 14 22.7155 13.9628 22.8417 13.8892L26.5762 11.7154L30.3094 13.8892C30.5826 14.0493 30.9269 14.0347 31.1857 13.852C31.4451 13.6689 31.5663 13.3541 31.4957 13.0504L30.5307 8.91042L33.8032 6.11579C34.0439 5.9107 34.1358 5.5868 34.037 5.29043V5.29043Z" fill="#E5E5E5"/>
<path d="M53.037 5.29043C52.9388 4.99462 52.6694 4.78452 52.3507 4.75654L48.0213 4.37368L46.3094 0.47114C46.1831 0.185134 45.8956 0 45.5762 0C45.2568 0 44.9693 0.185134 44.8431 0.471809L43.1311 4.37368L38.8011 4.75654C38.4829 4.78519 38.2142 4.99462 38.1154 5.29043C38.0167 5.58625 38.1079 5.9107 38.3485 6.11523L41.6211 8.91042L40.6561 13.0504C40.5855 13.3548 40.7068 13.6694 40.9661 13.852C41.1055 13.9501 41.2686 14 41.433 14C41.5748 14 41.7155 13.9628 41.8417 13.8892L45.5762 11.7154L49.3094 13.8892C49.5826 14.0493 49.9269 14.0347 50.1857 13.852C50.4451 13.6689 50.5663 13.3541 50.4957 13.0504L49.5307 8.91042L52.8032 6.11579C53.0439 5.9107 53.1358 5.5868 53.037 5.29043V5.29043Z" fill="#E5E5E5"/>
<path d="M72.037 5.29043C71.9388 4.99462 71.6694 4.78452 71.3507 4.75654L67.0213 4.37368L65.3094 0.47114C65.1831 0.185134 64.8956 0 64.5762 0C64.2568 0 63.9693 0.185134 63.8431 0.471809L62.1311 4.37368L57.8011 4.75654C57.4829 4.78519 57.2142 4.99462 57.1154 5.29043C57.0167 5.58625 57.1079 5.9107 57.3485 6.11523L60.6211 8.91042L59.6561 13.0504C59.5855 13.3548 59.7068 13.6694 59.9661 13.852C60.1055 13.9501 60.2686 14 60.433 14C60.5748 14 60.7155 13.9628 60.8417 13.8892L64.5762 11.7154L68.3094 13.8892C68.5826 14.0493 68.9269 14.0347 69.1857 13.852C69.4451 13.6689 69.5663 13.3541 69.4957 13.0504L68.5307 8.91042L71.8032 6.11579C72.0439 5.9107 72.1358 5.5868 72.037 5.29043V5.29043Z" fill="#E5E5E5"/>
<path d="M91.037 5.29043C90.9388 4.99462 90.6694 4.78452 90.3507 4.75654L86.0213 4.37368L84.3094 0.47114C84.1831 0.185134 83.8956 0 83.5762 0C83.2568 0 82.9693 0.185134 82.8431 0.471809L81.1311 4.37368L76.8011 4.75654C76.4829 4.78519 76.2142 4.99462 76.1154 5.29043C76.0167 5.58625 76.1079 5.9107 76.3485 6.11523L79.6211 8.91042L78.6561 13.0504C78.5855 13.3548 78.7068 13.6694 78.9661 13.852C79.1055 13.9501 79.2686 14 79.433 14C79.5748 14 79.7155 13.9628 79.8417 13.8892L83.5762 11.7154L87.3094 13.8892C87.5826 14.0493 87.9269 14.0347 88.1857 13.852C88.4451 13.6689 88.5663 13.3541 88.4957 13.0504L87.5307 8.91042L90.8032 6.11579C91.0439 5.9107 91.1358 5.5868 91.037 5.29043V5.29043Z" fill="#E5E5E5"/>
</svg>
