<svg width="92" height="16" viewBox="0 0 92 16" fill="none" xmlns="http://www.w3.org/2000/svg">
<path d="M53.1554 6.1827L53.156 6.18275C53.1788 6.1849 53.2221 6.20426 53.2419 6.26816L53.9583 6.04621L53.2421 6.26896C53.2632 6.33677 53.2398 6.40218 53.2032 6.4356L53.2026 6.43614L49.7119 9.63L49.3936 9.92122L49.4853 10.3428L50.5146 15.0737C50.5302 15.1456 50.4999 15.2058 50.4644 15.2326L50.4643 15.2327C50.4476 15.2454 50.4327 15.2492 50.4211 15.2498C50.4096 15.2503 50.3962 15.2478 50.3809 15.2382L50.3791 15.2371L46.3971 12.7527L46.0001 12.5051L45.6032 12.7527L41.6197 15.237L41.6194 15.2372C41.6102 15.2429 41.6026 15.246 41.5968 15.2476C41.591 15.2493 41.5857 15.25 41.5806 15.25C41.5745 15.25 41.568 15.249 41.5609 15.2467C41.5539 15.2443 41.5448 15.24 41.5342 15.2321C41.5 15.2063 41.4691 15.1468 41.4849 15.0736C41.4849 15.0736 41.4849 15.0735 41.4849 15.0734L42.5141 10.3428L42.6058 9.92127L42.2876 9.63005L38.7969 6.43555L38.7955 6.43428C38.7608 6.40269 38.7366 6.33774 38.7579 6.26934C38.7781 6.20464 38.8213 6.18501 38.8449 6.18261C38.845 6.1826 38.8451 6.18259 38.8452 6.18258L43.4627 5.74514L43.9142 5.70237L44.086 5.28271L45.9118 0.824304C45.9118 0.824191 45.9119 0.824078 45.9119 0.823965C45.9371 0.762929 45.9794 0.75 46.0001 0.75C46.021 0.75 46.0633 0.763249 46.0884 0.823575C46.0885 0.823752 46.0885 0.823931 46.0886 0.824109L47.9141 5.28267L48.0859 5.70236L48.5374 5.74514L53.1554 6.1827Z" stroke="#FFF27B" stroke-width="1.5"/>
<path d="M34.1554 6.1827L34.156 6.18275C34.1788 6.1849 34.2221 6.20426 34.2419 6.26816L34.9583 6.04621L34.2421 6.26896C34.2632 6.33677 34.2398 6.40218 34.2032 6.4356L34.2026 6.43614L30.7119 9.63L30.3936 9.92122L30.4853 10.3428L31.5146 15.0737C31.5302 15.1456 31.4999 15.2058 31.4644 15.2326L31.4643 15.2327C31.4476 15.2454 31.4327 15.2492 31.4211 15.2498C31.4096 15.2503 31.3962 15.2478 31.3809 15.2382L31.3791 15.2371L27.3971 12.7527L27.0001 12.5051L26.6032 12.7527L22.6197 15.237L22.6194 15.2372C22.6102 15.2429 22.6026 15.246 22.5968 15.2476C22.591 15.2493 22.5857 15.25 22.5806 15.25C22.5745 15.25 22.568 15.249 22.5609 15.2467C22.5539 15.2443 22.5448 15.24 22.5342 15.2321C22.5 15.2063 22.4691 15.1468 22.4849 15.0736C22.4849 15.0736 22.4849 15.0735 22.4849 15.0734L23.5141 10.3428L23.6058 9.92127L23.2876 9.63005L19.7969 6.43555L19.7955 6.43428C19.7608 6.40269 19.7366 6.33774 19.7579 6.26934C19.7781 6.20464 19.8213 6.18501 19.8449 6.18261C19.845 6.1826 19.8451 6.18259 19.8452 6.18258L24.4627 5.74514L24.9142 5.70237L25.086 5.28271L26.9118 0.824304C26.9118 0.824191 26.9119 0.824078 26.9119 0.823965C26.9371 0.762929 26.9794 0.75 27.0001 0.75C27.021 0.75 27.0633 0.763249 27.0884 0.823575C27.0885 0.823752 27.0885 0.823931 27.0886 0.824109L28.9141 5.28267L29.0859 5.70236L29.5374 5.74514L34.1554 6.1827Z" stroke="#FFF27B" stroke-width="1.5"/>
<line x1="26.5" y1="2" x2="26.5" y2="12" stroke="#FFF27B"/>
<line x1="26.4932" y1="2.0822" x2="25.4932" y2="8.0822" stroke="#FFF27B"/>
<line x1="26" y1="6.5" x2="22" y2="6.5" stroke="#FFF27B"/>
<line x1="24.6464" y1="9.35355" x2="21.6464" y2="6.35355" stroke="#FFF27B"/>
<line x1="23.5097" y1="13.9019" x2="24.5097" y2="8.90194" stroke="#FFF27B"/>
<line x1="23.7226" y1="13.584" x2="26.7227" y2="11.584" stroke="#FFF27B"/>
<path d="M22.3246 7.02547L25.9027 6.82164L24.8398 9.57858L22.3246 7.02547Z" fill="#FFF27B"/>
<rect x="25" y="8" width="1" height="4" fill="#FFF27B"/>
<line x1="25.4851" y1="9.12127" x2="24.4851" y2="13.1213" stroke="#FFF27B"/>
<path d="M15.9583 6.04621C15.8535 5.70813 15.5662 5.46802 15.2262 5.43605L10.6082 4.99849L8.78207 0.538446C8.64742 0.211582 8.34077 0 8.00006 0C7.65936 0 7.35271 0.211582 7.21806 0.53921L5.39197 4.99849L0.77321 5.43605C0.433846 5.46878 0.147218 5.70813 0.0418691 6.04621C-0.0634801 6.38428 0.0338122 6.75509 0.290532 6.98884L3.78122 10.1833L2.75189 14.9147C2.67657 15.2626 2.80597 15.6222 3.08259 15.8308C3.23128 15.9429 3.40523 16 3.58065 16C3.7319 16 3.88193 15.9575 4.01657 15.8734L8.00006 13.389L11.9821 15.8734C12.2735 16.0563 12.6408 16.0396 12.9168 15.8308C13.1935 15.6215 13.3228 15.2618 13.2475 14.9147L12.2182 10.1833L15.7089 6.98947C15.9656 6.75509 16.0636 6.38492 15.9583 6.04621V6.04621Z" fill="#FFF27B"/>
<path d="M91.1554 6.1827L91.156 6.18275C91.1788 6.1849 91.2221 6.20426 91.2419 6.26816L91.9583 6.04621L91.2421 6.26896C91.2632 6.33677 91.2398 6.40218 91.2032 6.4356L91.2026 6.43614L87.7119 9.63L87.3936 9.92122L87.4853 10.3428L88.5146 15.0737C88.5302 15.1456 88.4999 15.2058 88.4644 15.2326L88.4643 15.2327C88.4476 15.2454 88.4327 15.2492 88.4211 15.2498C88.4096 15.2503 88.3962 15.2478 88.3809 15.2382L88.3791 15.2371L84.3971 12.7527L84.0001 12.5051L83.6032 12.7527L79.6197 15.237L79.6194 15.2372C79.6102 15.2429 79.6026 15.246 79.5968 15.2476C79.591 15.2493 79.5857 15.25 79.5806 15.25C79.5745 15.25 79.568 15.249 79.5609 15.2467C79.5539 15.2443 79.5448 15.24 79.5342 15.2321C79.5 15.2063 79.4691 15.1468 79.4849 15.0736C79.4849 15.0736 79.4849 15.0735 79.4849 15.0734L80.5141 10.3428L80.6058 9.92127L80.2876 9.63005L76.7969 6.43555L76.7955 6.43428C76.7608 6.40269 76.7366 6.33774 76.7579 6.26934C76.7781 6.20464 76.8213 6.18501 76.8449 6.18261C76.845 6.1826 76.8451 6.18259 76.8452 6.18258L81.4627 5.74514L81.9142 5.70237L82.086 5.28271L83.9118 0.824304C83.9118 0.824191 83.9119 0.824078 83.9119 0.823965C83.9371 0.762929 83.9794 0.75 84.0001 0.75C84.021 0.75 84.0633 0.763249 84.0884 0.823575C84.0885 0.823752 84.0885 0.823931 84.0886 0.824109L85.9141 5.28267L86.0859 5.70236L86.5374 5.74514L91.1554 6.1827Z" stroke="#FFF27B" stroke-width="1.5"/>
<path d="M72.1554 6.1827L72.156 6.18275C72.1788 6.1849 72.2221 6.20426 72.2419 6.26816L72.9583 6.04621L72.2421 6.26896C72.2632 6.33677 72.2398 6.40218 72.2032 6.4356L72.2026 6.43614L68.7119 9.63L68.3936 9.92122L68.4853 10.3428L69.5146 15.0737C69.5302 15.1456 69.4999 15.2058 69.4644 15.2326L69.4643 15.2327C69.4476 15.2454 69.4327 15.2492 69.4211 15.2498C69.4096 15.2503 69.3962 15.2478 69.3809 15.2382L69.3791 15.2371L65.3971 12.7527L65.0001 12.5051L64.6032 12.7527L60.6197 15.237L60.6194 15.2372C60.6102 15.2429 60.6026 15.246 60.5968 15.2476C60.591 15.2493 60.5857 15.25 60.5806 15.25C60.5745 15.25 60.568 15.249 60.5609 15.2467C60.5539 15.2443 60.5448 15.24 60.5342 15.2321C60.5 15.2063 60.4691 15.1468 60.4849 15.0736C60.4849 15.0736 60.4849 15.0735 60.4849 15.0734L61.5141 10.3428L61.6058 9.92127L61.2876 9.63005L57.7969 6.43555L57.7955 6.43428C57.7608 6.40269 57.7366 6.33774 57.7579 6.26934C57.7781 6.20464 57.8213 6.18501 57.8449 6.18261C57.845 6.1826 57.8451 6.18259 57.8452 6.18258L62.4627 5.74514L62.9142 5.70237L63.086 5.28271L64.9118 0.824304C64.9118 0.824191 64.9119 0.824078 64.9119 0.823965C64.9371 0.762929 64.9794 0.75 65.0001 0.75C65.021 0.75 65.0633 0.763249 65.0884 0.823575C65.0885 0.823752 65.0885 0.823931 65.0886 0.824109L66.9141 5.28267L67.0859 5.70236L67.5374 5.74514L72.1554 6.1827Z" stroke="#FFF27B" stroke-width="1.5"/>
</svg>
