<svg width="92" height="15" viewBox="0 0 92 15" fill="none" xmlns="http://www.w3.org/2000/svg">
<path d="M14.9609 5.29043C14.8627 4.99462 14.5933 4.78452 14.2745 4.75654L9.94515 4.37368L8.23319 0.47114C8.10695 0.185134 7.81947 0 7.50006 0C7.18065 0 6.89317 0.185134 6.76693 0.471809L5.05497 4.37368L0.724884 4.75654C0.406731 4.78519 0.138017 4.99462 0.0392523 5.29043C-0.0595126 5.58625 0.031699 5.9107 0.272374 6.11523L3.54489 8.91042L2.5799 13.0504C2.50929 13.3548 2.6306 13.6694 2.88993 13.852C3.02932 13.9501 3.1924 14 3.35686 14C3.49865 14 3.6393 13.9628 3.76554 13.8892L7.50006 11.7154L11.2332 13.8892C11.5064 14.0493 11.8507 14.0347 12.1095 13.852C12.3689 13.6689 12.4901 13.3541 12.4195 13.0504L11.4545 8.91042L14.7271 6.11579C14.9677 5.9107 15.0596 5.5868 14.9609 5.29043V5.29043Z" fill="#FFDC23"/>
<path d="M26.5399 9.51325e-07C26.3859 -0.00023651 26.235 0.0439854 26.1056 0.127357C25.9761 0.210728 25.8734 0.329705 25.8099 0.470001L24.0899 4.37L19.7599 4.76C19.6004 4.76528 19.4462 4.81875 19.3177 4.91335C19.1892 5.00796 19.0923 5.13927 19.0399 5.29C18.9911 5.43552 18.987 5.59228 19.028 5.74017C19.0689 5.88805 19.1532 6.02032 19.2699 6.12L22.5799 8.91L21.5799 13.05C21.5449 13.1991 21.5559 13.3552 21.6112 13.4979C21.6665 13.6407 21.7636 13.7634 21.8899 13.85C22.0268 13.9483 22.1913 14.0008 22.3599 14C22.5035 13.9978 22.6444 13.96 22.7699 13.89L26.5399 11.72V9.51325e-07Z" fill="#FFDC23"/>
<path d="M26.54 11.72L30.27 13.89C30.4016 13.9736 30.5542 14.018 30.71 14.018C30.8659 14.018 31.0185 13.9736 31.15 13.89C31.2763 13.8034 31.3734 13.6807 31.4287 13.5379C31.484 13.3952 31.495 13.2391 31.46 13.09L30.46 8.95L33.74 6.16C33.877 6.06662 33.9803 5.9315 34.0343 5.77475C34.0884 5.618 34.0904 5.44799 34.04 5.29V5.29C33.9907 5.14311 33.8987 5.01425 33.7758 4.91986C33.6529 4.82546 33.5047 4.76981 33.35 4.76L29.04 4.37L27.27 0.470001C27.2065 0.329705 27.1038 0.210728 26.9743 0.127357C26.8449 0.0439854 26.694 -0.00023651 26.54 9.51325e-07V11.72Z" fill="#E5E5E5"/>
<path d="M53.037 5.29043C52.9388 4.99462 52.6694 4.78452 52.3507 4.75654L48.0213 4.37368L46.3094 0.47114C46.1831 0.185134 45.8956 0 45.5762 0C45.2568 0 44.9693 0.185134 44.8431 0.471809L43.1311 4.37368L38.8011 4.75654C38.4829 4.78519 38.2142 4.99462 38.1154 5.29043C38.0167 5.58625 38.1079 5.9107 38.3485 6.11523L41.6211 8.91042L40.6561 13.0504C40.5855 13.3548 40.7068 13.6694 40.9661 13.852C41.1055 13.9501 41.2686 14 41.433 14C41.5748 14 41.7155 13.9628 41.8417 13.8892L45.5762 11.7154L49.3094 13.8892C49.5826 14.0493 49.9269 14.0347 50.1857 13.852C50.4451 13.6689 50.5663 13.3541 50.4957 13.0504L49.5307 8.91042L52.8032 6.11579C53.0439 5.9107 53.1358 5.5868 53.037 5.29043V5.29043Z" fill="#E5E5E5"/>
<path d="M72.037 5.29043C71.9388 4.99462 71.6694 4.78452 71.3507 4.75654L67.0213 4.37368L65.3094 0.47114C65.1831 0.185134 64.8956 0 64.5762 0C64.2568 0 63.9693 0.185134 63.8431 0.471809L62.1311 4.37368L57.8011 4.75654C57.4829 4.78519 57.2142 4.99462 57.1154 5.29043C57.0167 5.58625 57.1079 5.9107 57.3485 6.11523L60.6211 8.91042L59.6561 13.0504C59.5855 13.3548 59.7068 13.6694 59.9661 13.852C60.1055 13.9501 60.2686 14 60.433 14C60.5748 14 60.7155 13.9628 60.8417 13.8892L64.5762 11.7154L68.3094 13.8892C68.5826 14.0493 68.9269 14.0347 69.1857 13.852C69.4451 13.6689 69.5663 13.3541 69.4957 13.0504L68.5307 8.91042L71.8032 6.11579C72.0439 5.9107 72.1358 5.5868 72.037 5.29043V5.29043Z" fill="#E5E5E5"/>
<path d="M91.037 5.29043C90.9388 4.99462 90.6694 4.78452 90.3507 4.75654L86.0213 4.37368L84.3094 0.47114C84.1831 0.185134 83.8956 0 83.5762 0C83.2568 0 82.9693 0.185134 82.8431 0.471809L81.1311 4.37368L76.8011 4.75654C76.4829 4.78519 76.2142 4.99462 76.1154 5.29043C76.0167 5.58625 76.1079 5.9107 76.3485 6.11523L79.6211 8.91042L78.6561 13.0504C78.5855 13.3548 78.7068 13.6694 78.9661 13.852C79.1055 13.9501 79.2686 14 79.433 14C79.5748 14 79.7155 13.9628 79.8417 13.8892L83.5762 11.7154L87.3094 13.8892C87.5826 14.0493 87.9269 14.0347 88.1857 13.852C88.4451 13.6689 88.5663 13.3541 88.4957 13.0504L87.5307 8.91042L90.8032 6.11579C91.0439 5.9107 91.1358 5.5868 91.037 5.29043V5.29043Z" fill="#E5E5E5"/>
</svg>
