<svg width="92" height="15" viewBox="0 0 92 15" fill="none" xmlns="http://www.w3.org/2000/svg">
<path d="M14.9609 5.29043C14.8627 4.99462 14.5933 4.78452 14.2745 4.75654L9.94515 4.37368L8.23319 0.47114C8.10695 0.185134 7.81947 0 7.50006 0C7.18065 0 6.89317 0.185134 6.76693 0.471809L5.05497 4.37368L0.724884 4.75654C0.406731 4.78519 0.138017 4.99462 0.0392523 5.29043C-0.0595126 5.58625 0.031699 5.9107 0.272374 6.11523L3.54489 8.91042L2.5799 13.0504C2.50929 13.3548 2.6306 13.6694 2.88993 13.852C3.02932 13.9501 3.1924 14 3.35686 14C3.49865 14 3.6393 13.9628 3.76554 13.8892L7.50006 11.7154L11.2332 13.8892C11.5064 14.0493 11.8507 14.0347 12.1095 13.852C12.3689 13.6689 12.4901 13.3541 12.4195 13.0504L11.4545 8.91042L14.7271 6.11579C14.9677 5.9107 15.0596 5.5868 14.9609 5.29043V5.29043Z" fill="#FFDC23"/>
<path d="M33.9609 5.29043C33.8627 4.99462 33.5933 4.78452 33.2745 4.75654L28.9451 4.37368L27.2332 0.47114C27.107 0.185134 26.8195 0 26.5001 0C26.1806 0 25.8932 0.185134 25.7669 0.471809L24.055 4.37368L19.7249 4.75654C19.4067 4.78519 19.138 4.99462 19.0393 5.29043C18.9405 5.58625 19.0317 5.9107 19.2724 6.11523L22.5449 8.91042L21.5799 13.0504C21.5093 13.3548 21.6306 13.6694 21.8899 13.852C22.0293 13.9501 22.1924 14 22.3569 14C22.4987 14 22.6393 13.9628 22.7655 13.8892L26.5001 11.7154L30.2332 13.8892C30.5064 14.0493 30.8507 14.0347 31.1095 13.852C31.3689 13.6689 31.4901 13.3541 31.4195 13.0504L30.4545 8.91042L33.7271 6.11579C33.9677 5.9107 34.0596 5.5868 33.9609 5.29043V5.29043Z" fill="#FFDC23"/>
<path d="M52.9609 5.29043C52.8627 4.99462 52.5933 4.78452 52.2745 4.75654L47.9451 4.37368L46.2332 0.47114C46.107 0.185134 45.8195 0 45.5001 0C45.1806 0 44.8932 0.185134 44.7669 0.471809L43.055 4.37368L38.7249 4.75654C38.4067 4.78519 38.138 4.99462 38.0393 5.29043C37.9405 5.58625 38.0317 5.9107 38.2724 6.11523L41.5449 8.91042L40.5799 13.0504C40.5093 13.3548 40.6306 13.6694 40.8899 13.852C41.0293 13.9501 41.1924 14 41.3569 14C41.4987 14 41.6393 13.9628 41.7655 13.8892L45.5001 11.7154L49.2332 13.8892C49.5064 14.0493 49.8507 14.0347 50.1095 13.852C50.3689 13.6689 50.4901 13.3541 50.4195 13.0504L49.4545 8.91042L52.7271 6.11579C52.9677 5.9107 53.0596 5.5868 52.9609 5.29043V5.29043Z" fill="#FFDC23"/>
<path d="M64.5399 9.51325e-07C64.3859 -0.00023651 64.235 0.0439854 64.1056 0.127357C63.9761 0.210728 63.8734 0.329705 63.8099 0.470001L62.0899 4.37L57.7599 4.76C57.6004 4.76528 57.4462 4.81875 57.3177 4.91335C57.1892 5.00796 57.0923 5.13927 57.0399 5.29C56.9911 5.43552 56.987 5.59228 57.028 5.74017C57.0689 5.88805 57.1532 6.02032 57.2699 6.12L60.5799 8.91L59.5799 13.05C59.5449 13.1991 59.5559 13.3552 59.6112 13.4979C59.6665 13.6407 59.7636 13.7634 59.8899 13.85C60.0268 13.9483 60.1913 14.0008 60.3599 14C60.5035 13.9978 60.6444 13.96 60.7699 13.89L64.5399 11.72V9.51325e-07Z" fill="#FFDC23"/>
<path d="M64.54 11.72L68.27 13.89C68.4016 13.9736 68.5542 14.018 68.71 14.018C68.8659 14.018 69.0185 13.9736 69.15 13.89C69.2763 13.8034 69.3734 13.6807 69.4287 13.5379C69.484 13.3952 69.495 13.2391 69.46 13.09L68.46 8.95L71.74 6.16C71.877 6.06662 71.9803 5.9315 72.0343 5.77475C72.0884 5.618 72.0904 5.44799 72.04 5.29V5.29C71.9907 5.14311 71.8987 5.01425 71.7758 4.91986C71.6529 4.82546 71.5047 4.76981 71.35 4.76L67.04 4.37L65.27 0.470001C65.2065 0.329705 65.1038 0.210728 64.9743 0.127357C64.8449 0.0439854 64.694 -0.00023651 64.54 9.51325e-07V11.72Z" fill="#E5E5E5"/>
<path d="M91.037 5.29043C90.9388 4.99462 90.6694 4.78452 90.3507 4.75654L86.0213 4.37368L84.3094 0.47114C84.1831 0.185134 83.8956 0 83.5762 0C83.2568 0 82.9693 0.185134 82.8431 0.471809L81.1311 4.37368L76.8011 4.75654C76.4829 4.78519 76.2142 4.99462 76.1154 5.29043C76.0167 5.58625 76.1079 5.9107 76.3485 6.11523L79.6211 8.91042L78.6561 13.0504C78.5855 13.3548 78.7068 13.6694 78.9661 13.852C79.1055 13.9501 79.2686 14 79.433 14C79.5748 14 79.7155 13.9628 79.8417 13.8892L83.5762 11.7154L87.3094 13.8892C87.5826 14.0493 87.9269 14.0347 88.1857 13.852C88.4451 13.6689 88.5663 13.3541 88.4957 13.0504L87.5307 8.91042L90.8032 6.11579C91.0439 5.9107 91.1358 5.5868 91.037 5.29043V5.29043Z" fill="#E5E5E5"/>
</svg>
