<svg width="91" height="14" viewBox="0 0 91 14" fill="none" xmlns="http://www.w3.org/2000/svg">
<path d="M14.9609 5.29043C14.8627 4.99462 14.5933 4.78452 14.2745 4.75654L9.94515 4.37368L8.23319 0.47114C8.10695 0.185134 7.81947 0 7.50006 0C7.18065 0 6.89317 0.185134 6.76693 0.471809L5.05497 4.37368L0.724884 4.75654C0.406731 4.78519 0.138017 4.99462 0.0392523 5.29043C-0.0595126 5.58625 0.031699 5.9107 0.272374 6.11523L3.54489 8.91042L2.5799 13.0504C2.50929 13.3548 2.6306 13.6694 2.88993 13.852C3.02932 13.9501 3.1924 14 3.35686 14C3.49865 14 3.6393 13.9628 3.76554 13.8892L7.50006 11.7154L11.2332 13.8892C11.5064 14.0493 11.8507 14.0347 12.1095 13.852C12.3689 13.6689 12.4901 13.3541 12.4195 13.0504L11.4545 8.91042L14.7271 6.11579C14.9677 5.9107 15.0596 5.5868 14.9609 5.29043V5.29043Z" fill="#FFDC23"/>
<path d="M33.9609 5.29043C33.8627 4.99462 33.5933 4.78452 33.2745 4.75654L28.9451 4.37368L27.2332 0.47114C27.107 0.185134 26.8195 0 26.5001 0C26.1806 0 25.8932 0.185134 25.7669 0.471809L24.055 4.37368L19.7249 4.75654C19.4067 4.78519 19.138 4.99462 19.0393 5.29043C18.9405 5.58625 19.0317 5.9107 19.2724 6.11523L22.5449 8.91042L21.5799 13.0504C21.5093 13.3548 21.6306 13.6694 21.8899 13.852C22.0293 13.9501 22.1924 14 22.3569 14C22.4987 14 22.6393 13.9628 22.7655 13.8892L26.5001 11.7154L30.2332 13.8892C30.5064 14.0493 30.8507 14.0347 31.1095 13.852C31.3689 13.6689 31.4901 13.3541 31.4195 13.0504L30.4545 8.91042L33.7271 6.11579C33.9677 5.9107 34.0596 5.5868 33.9609 5.29043V5.29043Z" fill="#FFDC23"/>
<path d="M52.9609 5.29043C52.8627 4.99462 52.5933 4.78452 52.2745 4.75654L47.9451 4.37368L46.2332 0.47114C46.107 0.185134 45.8195 0 45.5001 0C45.1806 0 44.8932 0.185134 44.7669 0.471809L43.055 4.37368L38.7249 4.75654C38.4067 4.78519 38.138 4.99462 38.0393 5.29043C37.9405 5.58625 38.0317 5.9107 38.2724 6.11523L41.5449 8.91042L40.5799 13.0504C40.5093 13.3548 40.6306 13.6694 40.8899 13.852C41.0293 13.9501 41.1924 14 41.3569 14C41.4987 14 41.6393 13.9628 41.7655 13.8892L45.5001 11.7154L49.2332 13.8892C49.5064 14.0493 49.8507 14.0347 50.1095 13.852C50.3689 13.6689 50.4901 13.3541 50.4195 13.0504L49.4545 8.91042L52.7271 6.11579C52.9677 5.9107 53.0596 5.5868 52.9609 5.29043V5.29043Z" fill="#FFDC23"/>
<path d="M71.9609 5.29043C71.8627 4.99462 71.5933 4.78452 71.2745 4.75654L66.9451 4.37368L65.2332 0.47114C65.107 0.185134 64.8195 0 64.5001 0C64.1806 0 63.8932 0.185134 63.7669 0.471809L62.055 4.37368L57.7249 4.75654C57.4067 4.78519 57.138 4.99462 57.0393 5.29043C56.9405 5.58625 57.0317 5.9107 57.2724 6.11523L60.5449 8.91042L59.5799 13.0504C59.5093 13.3548 59.6306 13.6694 59.8899 13.852C60.0293 13.9501 60.1924 14 60.3569 14C60.4987 14 60.6393 13.9628 60.7655 13.8892L64.5001 11.7154L68.2332 13.8892C68.5064 14.0493 68.8507 14.0347 69.1095 13.852C69.3689 13.6689 69.4901 13.3541 69.4195 13.0504L68.4545 8.91042L71.7271 6.11579C71.9677 5.9107 72.0596 5.5868 71.9609 5.29043V5.29043Z" fill="#FFDC23"/>
<path d="M90.9609 5.29043C90.8627 4.99462 90.5933 4.78452 90.2745 4.75654L85.9451 4.37368L84.2332 0.47114C84.107 0.185134 83.8195 0 83.5001 0C83.1806 0 82.8932 0.185134 82.7669 0.471809L81.055 4.37368L76.7249 4.75654C76.4067 4.78519 76.138 4.99462 76.0393 5.29043C75.9405 5.58625 76.0317 5.9107 76.2724 6.11523L79.5449 8.91042L78.5799 13.0504C78.5093 13.3548 78.6306 13.6694 78.8899 13.852C79.0293 13.9501 79.1924 14 79.3569 14C79.4987 14 79.6393 13.9628 79.7655 13.8892L83.5001 11.7154L87.2332 13.8892C87.5064 14.0493 87.8507 14.0347 88.1095 13.852C88.3689 13.6689 88.4901 13.3541 88.4195 13.0504L87.4545 8.91042L90.7271 6.11579C90.9677 5.9107 91.0596 5.5868 90.9609 5.29043V5.29043Z" fill="#E5E5E5"/>
</svg>
