<svg width="100" height="16" viewBox="0 0 100 16" fill="none" xmlns="http://www.w3.org/2000/svg">
<path d="M15.9583 6.04621C15.8535 5.70813 15.5662 5.46802 15.2262 5.43605L10.6082 4.99849L8.78207 0.538446C8.64742 0.211582 8.34077 0 8.00006 0C7.65936 0 7.35271 0.211582 7.21806 0.53921L5.39197 4.99849L0.77321 5.43605C0.433846 5.46878 0.147218 5.70813 0.0418691 6.04621C-0.0634801 6.38428 0.0338122 6.75509 0.290532 6.98884L3.78121 10.1833L2.75189 14.9147C2.67657 15.2626 2.80597 15.6222 3.08259 15.8308C3.23128 15.9429 3.40523 16 3.58065 16C3.7319 16 3.88193 15.9575 4.01657 15.8734L8.00006 13.389L11.9821 15.8734C12.2735 16.0563 12.6408 16.0396 12.9168 15.8308C13.1935 15.6215 13.3228 15.2618 13.2475 14.9147L12.2182 10.1833L15.7089 6.98947C15.9656 6.75509 16.0636 6.38492 15.9583 6.04621Z" fill="#FFF27B"/>
<path d="M36.9583 6.04621C36.8535 5.70813 36.5662 5.46802 36.2262 5.43605L31.6082 4.99849L29.7821 0.538446C29.6474 0.211582 29.3408 0 29.0001 0C28.6594 0 28.3527 0.211582 28.2181 0.53921L26.392 4.99849L21.7732 5.43605C21.4338 5.46878 21.1472 5.70813 21.0419 6.04621C20.9365 6.38428 21.0338 6.75509 21.2905 6.98884L24.7812 10.1833L23.7519 14.9147C23.6766 15.2626 23.806 15.6222 24.0826 15.8308C24.2313 15.9429 24.4052 16 24.5806 16C24.7319 16 24.8819 15.9575 25.0166 15.8734L29.0001 13.389L32.9821 15.8734C33.2735 16.0563 33.6408 16.0396 33.9168 15.8308C34.1935 15.6215 34.3228 15.2618 34.2475 14.9147L33.2182 10.1833L36.7089 6.98947C36.9656 6.75509 37.0636 6.38492 36.9583 6.04621Z" fill="#FFF27B"/>
<path d="M57.9583 6.04621C57.8535 5.70813 57.5662 5.46802 57.2262 5.43605L52.6082 4.99849L50.7821 0.538446C50.6474 0.211582 50.3408 0 50.0001 0C49.6594 0 49.3527 0.211582 49.2181 0.53921L47.392 4.99849L42.7732 5.43605C42.4338 5.46878 42.1472 5.70813 42.0419 6.04621C41.9365 6.38428 42.0338 6.75509 42.2905 6.98884L45.7812 10.1833L44.7519 14.9147C44.6766 15.2626 44.806 15.6222 45.0826 15.8308C45.2313 15.9429 45.4052 16 45.5806 16C45.7319 16 45.8819 15.9575 46.0166 15.8734L50.0001 13.389L53.9821 15.8734C54.2735 16.0563 54.6408 16.0396 54.9168 15.8308C55.1935 15.6215 55.3228 15.2618 55.2475 14.9147L54.2182 10.1833L57.7089 6.98947C57.9656 6.75509 58.0636 6.38492 57.9583 6.04621Z" fill="#FFF27B"/>
<path d="M78.9583 6.04621C78.8535 5.70813 78.5662 5.46802 78.2262 5.43605L73.6082 4.99849L71.7821 0.538446C71.6474 0.211582 71.3408 0 71.0001 0C70.6594 0 70.3527 0.211582 70.2181 0.53921L68.392 4.99849L63.7732 5.43605C63.4338 5.46878 63.1472 5.70813 63.0419 6.04621C62.9365 6.38428 63.0338 6.75509 63.2905 6.98884L66.7812 10.1833L65.7519 14.9147C65.6766 15.2626 65.806 15.6222 66.0826 15.8308C66.2313 15.9429 66.4052 16 66.5806 16C66.7319 16 66.8819 15.9575 67.0166 15.8734L71.0001 13.389L74.9821 15.8734C75.2735 16.0563 75.6408 16.0396 75.9168 15.8308C76.1935 15.6215 76.3228 15.2618 76.2475 14.9147L75.2182 10.1833L78.7089 6.98947C78.9656 6.75509 79.0636 6.38492 78.9583 6.04621Z" fill="#FFF27B"/>
<path d="M99.2419 6.26816L99.2421 6.26896C99.2632 6.33677 99.2398 6.40218 99.2032 6.4356L99.2026 6.43614L95.7119 9.63L95.3936 9.92122L95.4853 10.3428L96.5146 15.0737C96.5302 15.1456 96.4999 15.2058 96.4644 15.2326L96.4643 15.2327C96.4476 15.2454 96.4327 15.2492 96.4211 15.2498C96.4096 15.2503 96.3962 15.2478 96.3809 15.2382L96.3791 15.2371L92.3971 12.7527L92.0001 12.5051L91.6032 12.7527L87.6197 15.237L87.6193 15.2372C87.6102 15.2429 87.6026 15.246 87.5968 15.2476C87.591 15.2493 87.5857 15.25 87.5806 15.25C87.5745 15.25 87.568 15.249 87.5609 15.2467C87.5539 15.2443 87.5448 15.24 87.5341 15.232C87.4999 15.2061 87.4691 15.1467 87.4849 15.0736C87.4849 15.0735 87.4849 15.0735 87.4849 15.0734L88.5141 10.3428L88.6058 9.92127L88.2876 9.63005L84.7969 6.43555L84.7955 6.43428C84.7608 6.40269 84.7366 6.33774 84.7579 6.26934C84.7781 6.20465 84.8213 6.18501 84.8449 6.18261C84.845 6.1826 84.8451 6.18259 84.8452 6.18258L89.4627 5.74514L89.9142 5.70237L90.086 5.28271L91.9118 0.824304C91.9118 0.8242 91.9119 0.824096 91.9119 0.823992C91.9371 0.762932 91.9794 0.75 92.0001 0.75C92.0211 0.75 92.0634 0.763267 92.0884 0.823698C92.0885 0.823835 92.0885 0.823972 92.0886 0.824109L93.9141 5.28267L94.0859 5.70236L94.5374 5.74514L99.1554 6.1827L99.156 6.18275C99.1788 6.1849 99.2221 6.20426 99.2419 6.26816Z" stroke="#FFF27B" stroke-width="1.5"/>
</svg>
